<svg xmlns="http://www.w3.org/2000/svg" width="178.04" height="178.04"><defs><style>.cls-2,.cls-3{fill:none;stroke:#f7f7f7;stroke-miterlimit:10}.cls-2{stroke-width:.939px}.cls-3{stroke-width:.235px}</style></defs><g id="Group_289" opacity=".49" transform="translate(.117 .117)"><g id="Group_40"><g id="Group_39"><g id="Group_38" transform="translate(15.216 15.215)"><path id="Path_82" d="M88.9 179.141l1.646 3.378 1.723-3.357c.03-.058.1-.189.208-.382 4.946-9.064 7.453-15.555 7.453-19.292a9.341 9.341 0 10-18.681 0c0 3.738 2.508 10.229 7.454 19.293.105.193.177.319.197.36zm1.69-25.243a5.553 5.553 0 015.59 5.59c0 1.293-.577 5.224-5.59 14.86-5.014-9.635-5.59-13.566-5.59-14.86a5.553 5.553 0 015.589-5.588z" class="cls-2" transform="translate(-16.902 -150.147)"/><path id="Path_83" d="M90.573 220.726a9.341 9.341 0 109.341 9.341 9.351 9.351 0 00-9.341-9.341zm0 14.931a5.59 5.59 0 115.591-5.59 5.6 5.6 0 01-5.591 5.59z" class="cls-2" transform="translate(-16.901 -156.394)"/><path id="Path_84" d="M127.5 195.145c6.812-2 15.622-5.078 18.915-8.371a9.663 9.663 0 002.729-6.024 9.374 9.374 0 00-9.913-9.914 9.663 9.663 0 00-6.025 2.729c-2.643 2.642-5.459 9.006-8.37 18.912l-.116.395-1.225 3.552 3.591-1.155c.065-.021.207-.062.414-.124zm8.358-18.929a5.928 5.928 0 014.063-1.663 5.337 5.337 0 013.844 1.663 5.555 5.555 0 010 7.906c-.915.915-4.1 3.287-14.461 6.555 3.271-10.358 5.641-13.546 6.557-14.461z" class="cls-2" transform="translate(-20.641 -151.976)"/><path id="Path_85" d="M34.07 186.752c2.643 2.643 9.006 5.46 18.912 8.37l.395.117 3.553 1.225-1.156-3.593c-.02-.061-.061-.2-.123-.416-2.911-9.906-5.728-16.269-8.37-18.913a9.668 9.668 0 00-6.025-2.729 9.374 9.374 0 00-9.914 9.914 9.658 9.658 0 002.728 6.025zm2.652-10.557a5.313 5.313 0 013.837-1.657c.143 0 .28.006.41.016a5.944 5.944 0 013.658 1.642c.915.914 3.286 4.1 6.555 14.46-10.358-3.269-13.546-5.639-14.461-6.555a5.943 5.943 0 01-1.641-3.658 5.294 5.294 0 011.643-4.248z" class="cls-2" transform="translate(-12.483 -151.974)"/><path id="Path_86" d="M39.647 231.741l3.376-1.645-3.354-1.723c-.057-.03-.187-.1-.378-.205-6.232-3.4-14.638-7.457-19.3-7.457a9.341 9.341 0 000 18.682c4.658 0 13.063-4.054 19.294-7.455zm-19.653 3.9a5.59 5.59 0 110-11.18c1.3 0 5.227.577 14.861 5.59-9.635 5.014-13.567 5.591-14.861 5.591z" class="cls-2" transform="translate(-10.654 -156.392)"/><path id="Path_87" d="M92.249 279.665l-1.649-3.379-1.725 3.357c-.029.056-.1.186-.205.377-3.4 6.232-7.456 14.639-7.456 19.3a9.341 9.341 0 1018.681 0c0-3.737-2.508-10.227-7.453-19.289a29.378 29.378 0 00-.193-.366zm-1.691 25.242a5.553 5.553 0 01-5.59-5.59c0-1.294.577-5.226 5.59-14.86 5.014 9.637 5.591 13.566 5.591 14.86a5.553 5.553 0 01-5.591 5.59z" class="cls-2" transform="translate(-16.899 -161.311)"/><path id="Path_88" d="M52.965 264.316c-6.812 2-15.622 5.078-18.916 8.371a9.661 9.661 0 00-2.729 6.025 9.391 9.391 0 009.216 9.94c.232 0 .464-.008.7-.026a9.663 9.663 0 006.025-2.729c2.642-2.642 5.459-9.006 8.37-18.911.062-.212.1-.355.116-.395l1.225-3.553-3.591 1.155c-.064.02-.206.061-.416.123zm-8.358 18.929a5.944 5.944 0 01-3.658 1.642 5.627 5.627 0 01-5.89-5.887 5.946 5.946 0 011.642-3.659c.915-.915 4.1-3.287 14.461-6.555-3.27 10.356-5.64 13.544-6.556 14.459z" class="cls-2" transform="translate(-12.481 -160.138)"/><path id="Path_89" d="M127.492 264.332l-.395-.116-3.553-1.225 1.155 3.592c.02.062.062.2.124.416 2 6.811 5.078 15.621 8.37 18.914a9.663 9.663 0 006.025 2.729q.35.026.7.026a9.1 9.1 0 006.488-2.755 9.251 9.251 0 000-13.209c-2.646-2.644-9.006-5.461-18.914-8.372zm16.259 18.929a5.554 5.554 0 01-7.905 0c-.915-.915-3.287-4.1-6.555-14.461 10.358 3.269 13.546 5.64 14.46 6.555a5.946 5.946 0 011.642 3.658 5.3 5.3 0 01-1.642 4.248z" class="cls-2" transform="translate(-20.645 -160.134)"/><path id="Path_90" d="M159.824 220.742c-3.739 0-10.23 2.508-19.293 7.454l-.36.2-3.377 1.646 3.355 1.723c.057.03.187.1.379.206 6.231 3.4 14.638 7.456 19.3 7.456a9.341 9.341 0 000-18.681zm0 14.931c-1.3 0-5.227-.578-14.861-5.591 9.635-5.012 13.567-5.59 14.861-5.59a5.591 5.591 0 010 11.181z" class="cls-2" transform="translate(-21.818 -156.395)"/><path id="Path_91" d="M125.764 250.3a9.381 9.381 0 01-1.983.215 8.587 8.587 0 01-5.912-2.324 31.5 31.5 0 01-6.848-9.094 24.128 24.128 0 00-3.215 1.939 35.74 35.74 0 007.5 9.9 12.72 12.72 0 109.672-22.066 33.869 33.869 0 00-16.377 3.062 30.527 30.527 0 01.011-11.665 34.394 34.394 0 0016.365 3.116 12.717 12.717 0 10-9.672-22.065 35.733 35.733 0 00-7.472 9.838 25.081 25.081 0 003.226 1.95 31.9 31.9 0 016.807-9.048 8.694 8.694 0 017.894-2.108 8.8 8.8 0 016.383 5.258 8.95 8.95 0 01-.636 8.225 8.789 8.789 0 01-6.793 4.209 30.32 30.32 0 01-15.114-3.062 29.09 29.09 0 01-7.816-5.6 28.677 28.677 0 01-5.624-7.826 30.48 30.48 0 01-3.023-15.123 8.789 8.789 0 014.209-6.793 8.92 8.92 0 014.706-1.348 9.164 9.164 0 013.519.711 8.806 8.806 0 015.259 6.383 8.7 8.7 0 01-2.109 7.894 32.378 32.378 0 01-9.051 6.822 25.327 25.327 0 001.942 3.221 35.737 35.737 0 009.851-7.48 12.72 12.72 0 10-22.063-9.672 34.576 34.576 0 003.083 16.372 30.674 30.674 0 01-11.661 0 33.822 33.822 0 003.064-16.377 12.717 12.717 0 10-22.066 9.672 35.735 35.735 0 009.88 7.494 25.251 25.251 0 001.948-3.228 31.865 31.865 0 01-9.088-6.827 8.7 8.7 0 01-2.108-7.894 8.8 8.8 0 015.258-6.383 9.165 9.165 0 013.52-.711 8.915 8.915 0 014.705 1.348 8.79 8.79 0 014.21 6.793 30 30 0 01-3.012 15.127 29.171 29.171 0 01-5.638 7.806 29.642 29.642 0 01-22.953 8.643 8.772 8.772 0 01-6.793-4.21 8.95 8.95 0 01-.636-8.225 8.8 8.8 0 016.382-5.258 9.366 9.366 0 011.982-.215 8.588 8.588 0 015.913 2.324 32.786 32.786 0 016.847 9.094 24.543 24.543 0 003.215-1.939 35.72 35.72 0 00-7.5-9.9 12.72 12.72 0 10-9.672 22.066 33.866 33.866 0 0016.376-3.062 30.5 30.5 0 01-.01 11.665 34.393 34.393 0 00-16.365-3.116 12.717 12.717 0 109.667 22.072 35.751 35.751 0 007.472-9.838 25.027 25.027 0 00-3.227-1.95 31.88 31.88 0 01-6.806 9.048 8.7 8.7 0 01-7.9 2.108 8.8 8.8 0 01-6.383-5.258 8.95 8.95 0 01.637-8.225 8.787 8.787 0 016.793-4.209 30.32 30.32 0 0115.113 3.056 29.106 29.106 0 017.816 5.6 28.677 28.677 0 015.624 7.826 30.48 30.48 0 013.023 15.124 8.789 8.789 0 01-4.209 6.793 8.92 8.92 0 01-4.706 1.348 9.171 9.171 0 01-3.52-.711 8.807 8.807 0 01-5.258-6.383 8.7 8.7 0 012.109-7.894 32.073 32.073 0 019.054-6.819 24.349 24.349 0 00-1.942-3.221 35.737 35.737 0 00-9.851 7.48 12.72 12.72 0 1022.065 9.672 34.575 34.575 0 00-3.083-16.372 30.674 30.674 0 0111.661 0 33.821 33.821 0 00-3.064 16.377 12.717 12.717 0 1022.066-9.672 35.755 35.755 0 00-9.881-7.494 25.242 25.242 0 00-1.947 3.228 31.873 31.873 0 019.087 6.827 8.7 8.7 0 012.109 7.894 8.8 8.8 0 01-5.258 6.383 9.164 9.164 0 01-3.52.711 8.92 8.92 0 01-4.706-1.348 8.791 8.791 0 01-4.209-6.793 29.989 29.989 0 013.012-15.127 29.17 29.17 0 015.639-7.806 29.642 29.642 0 0122.953-8.643 8.773 8.773 0 016.793 4.21 8.951 8.951 0 01.636 8.224 8.8 8.8 0 01-6.376 5.254zm-20.6-16.51A34.377 34.377 0 0094.3 244.629a34.487 34.487 0 00-15.375 0 32.854 32.854 0 00-4.813-6.057 33.485 33.485 0 00-6.03-4.768 34.349 34.349 0 00.01-15.38 34.368 34.368 0 0010.861-10.841 34.452 34.452 0 0015.375 0 32.788 32.788 0 004.813 6.058 33.519 33.519 0 006.03 4.768 34.366 34.366 0 00-.009 15.38z" class="cls-2" transform="translate(-12.954 -152.447)"/></g><circle id="Ellipse_3" cx="82.781" cy="82.781" r="82.781" class="cls-3" transform="translate(6.122 6.122)"/><circle id="Ellipse_4" cx="51.164" cy="51.164" r="51.164" class="cls-3" transform="translate(37.739 37.739)"/><circle id="Ellipse_5" cx="31.621" cy="31.621" r="31.621" class="cls-3" transform="translate(57.282 6.118)"/><circle id="Ellipse_6" cx="31.621" cy="31.621" r="31.621" class="cls-3" transform="translate(57.282 108.446)"/><circle id="Ellipse_7" cx="31.621" cy="31.621" r="31.621" class="cls-3" transform="translate(108.418 57.282)"/><circle id="Ellipse_8" cx="31.621" cy="31.621" r="31.621" class="cls-3" transform="translate(6.118 57.282)"/><circle id="Ellipse_9" cx="31.621" cy="31.621" r="31.621" class="cls-3" transform="translate(93.456 21.113)"/><circle id="Ellipse_10" cx="31.621" cy="31.621" r="31.621" class="cls-3" transform="translate(21.099 93.47)"/><circle id="Ellipse_11" cx="31.621" cy="31.621" r="31.621" class="cls-3" transform="translate(93.437 93.45)"/><circle id="Ellipse_12" cx="31.621" cy="31.621" r="31.621" class="cls-3" transform="translate(21.099 21.113)"/><path id="Line_15" d="M0 0h177.806" class="cls-3" transform="translate(0 88.903)"/><path id="Line_16" d="M0 0v177.806" class="cls-3" transform="translate(88.903)"/><path id="Line_17" d="M0 0l125.728 125.727" class="cls-3" transform="translate(26.039 26.039)"/><path id="Line_18" d="M125.728 0L0 125.727" class="cls-3" transform="translate(26.039 26.039)"/><circle id="Ellipse_13" cx="7.466" cy="7.466" r="7.466" class="cls-3" transform="translate(81.423 81.437)"/><circle id="Ellipse_14" cx="7.466" cy="7.466" r="7.466" class="cls-3" transform="translate(81.437 17.105)"/><circle id="Ellipse_15" cx="2.851" cy="2.851" r="2.851" class="cls-3" transform="translate(86.037 37.739)"/><circle id="Ellipse_16" cx="2.851" cy="2.851" r="2.851" class="cls-3" transform="translate(86.037 32.036)"/><circle id="Ellipse_17" cx="7.466" cy="7.466" r="7.466" class="cls-3" transform="translate(126.937 35.957)"/><circle id="Ellipse_18" cx="2.851" cy="2.851" r="2.851" class="cls-3" transform="translate(120.213 51.889)"/><circle id="Ellipse_19" cx="2.851" cy="2.851" r="2.851" class="cls-3" transform="translate(124.246 47.857)"/><circle id="Ellipse_20" cx="10.851" cy="10.851" r="10.851" class="cls-3" transform="translate(62.616 40.802)"/><circle id="Ellipse_21" cx="10.851" cy="10.851" r="10.851" class="cls-3" transform="translate(93.484 40.802)"/><circle id="Ellipse_22" cx="10.851" cy="10.851" r="10.851" class="cls-3" transform="translate(115.301 62.63)"/><circle id="Ellipse_23" cx="10.851" cy="10.851" r="10.851" class="cls-3" transform="translate(115.301 93.498)"/><circle id="Ellipse_24" cx="10.851" cy="10.851" r="10.851" class="cls-3" transform="translate(40.802 93.474)"/><circle id="Ellipse_25" cx="10.851" cy="10.851" r="10.851" class="cls-3" transform="translate(40.802 62.606)"/><circle id="Ellipse_26" cx="10.851" cy="10.851" r="10.851" class="cls-3" transform="translate(93.484 115.301)"/><circle id="Ellipse_27" cx="10.851" cy="10.851" r="10.851" class="cls-3" transform="translate(62.616 115.301)"/><circle id="Ellipse_28" cx="7.466" cy="7.466" r="7.466" class="cls-3" transform="translate(35.957 35.938)"/><circle id="Ellipse_29" cx="2.851" cy="2.851" r="2.851" class="cls-3" transform="translate(51.889 51.889)"/><circle id="Ellipse_30" cx="2.851" cy="2.851" r="2.851" class="cls-3" transform="translate(47.857 47.857)"/><circle id="Ellipse_31" cx="7.466" cy="7.466" r="7.466" class="cls-3" transform="translate(17.105 81.423)"/><circle id="Ellipse_32" cx="2.851" cy="2.851" r="2.851" class="cls-3" transform="translate(37.739 86.051)"/><circle id="Ellipse_33" cx="2.851" cy="2.851" r="2.851" class="cls-3" transform="translate(32.036 86.051)"/><circle id="Ellipse_34" cx="7.466" cy="7.466" r="7.466" class="cls-3" transform="translate(81.41 145.77)"/><circle id="Ellipse_35" cx="2.851" cy="2.851" r="2.851" class="cls-3" transform="translate(86.037 134.364)"/><circle id="Ellipse_36" cx="2.851" cy="2.851" r="2.851" class="cls-3" transform="translate(86.037 140.067)"/><circle id="Ellipse_37" cx="7.466" cy="7.466" r="7.466" class="cls-3" transform="translate(35.91 126.917)"/><circle id="Ellipse_38" cx="2.851" cy="2.851" r="2.851" class="cls-3" transform="translate(51.861 120.213)"/><circle id="Ellipse_39" cx="2.851" cy="2.851" r="2.851" class="cls-3" transform="translate(47.829 124.246)"/><circle id="Ellipse_40" cx="7.466" cy="7.466" r="7.466" class="cls-3" transform="translate(126.89 126.937)"/><circle id="Ellipse_41" cx="2.851" cy="2.851" r="2.851" class="cls-3" transform="translate(120.186 120.213)"/><circle id="Ellipse_42" cx="2.851" cy="2.851" r="2.851" class="cls-3" transform="translate(124.218 124.246)"/><circle id="Ellipse_43" cx="7.466" cy="7.466" r="7.466" class="cls-3" transform="translate(145.742 81.451)"/><circle id="Ellipse_44" cx="2.851" cy="2.851" r="2.851" class="cls-3" transform="translate(134.336 86.051)"/><circle id="Ellipse_45" cx="2.851" cy="2.851" r="2.851" class="cls-3" transform="translate(140.039 86.051)"/></g><circle id="Ellipse_46" cx="88.903" cy="88.903" r="88.903" class="cls-3"/></g></g></svg>