<svg xmlns="http://www.w3.org/2000/svg" width="593.575" height="590.102"><defs><style>.cls-1{fill:none;stroke:#dcdcdc}</style></defs><g id="Group_80" transform="translate(.5 .5)"><path id="Path_26" d="M59.651 131.443l6.628 13.6 6.927-13.512c.107-.234.4-.746.831-1.535C93.922 93.549 104 67.441 104 52.416c0-18.478-14.045-37.574-37.553-37.574s-37.574 19.1-37.574 37.574c0 15.025 10.1 41.133 29.987 77.578.426.789.725 1.3.788 1.449m6.8-101.512c15.516 0 22.485 13.15 22.485 22.485 0 5.2-2.323 21.014-22.485 59.761-20.16-38.747-22.483-54.561-22.483-59.761 0-9.335 6.969-22.485 22.485-22.485" class="cls-1" transform="translate(229.902 -14.842)"/><path id="Path_27" d="M66.427 26.982A37.563 37.563 0 10104 64.535a37.584 37.584 0 00-37.573-37.553m0 60.038a22.485 22.485 0 1122.485-22.485A22.517 22.517 0 0166.427 87.02" class="cls-1" transform="translate(229.861 230.016)"/><path id="Path_28" d="M52.255 116.262c27.387-8.056 62.83-20.417 76.065-33.674a38.77 38.77 0 0010.98-24.211 36.481 36.481 0 00-10.976-28.9A36.481 36.481 0 0099.42 18.5a38.878 38.878 0 00-24.232 10.977c-10.614 10.635-21.931 36.21-33.653 76.043-.256.853-.4 1.428-.469 1.6l-4.923 14.28 14.45-4.646c.234-.085.81-.234 1.662-.49m33.61-76.129a23.867 23.867 0 0116.347-6.671 21.51 21.51 0 0115.452 6.671c10.955 10.976 6.586 25.191 0 31.8-3.688 3.684-16.518 13.211-58.164 26.365 13.151-41.67 22.678-54.479 26.365-58.166" class="cls-1" transform="translate(377.513 57.35)"/><path id="Path_29" d="M31.369 82.605C42 93.24 67.58 104.557 107.434 116.258l1.577.469 14.3 4.923-4.667-14.429a54.196 54.196 0 00-.49-1.684C106.454 65.7 95.115 40.108 84.5 29.473A38.991 38.991 0 0060.269 18.5a36.58 36.58 0 00-28.9 10.976 36.508 36.508 0 00-10.976 28.9 38.878 38.878 0 0010.976 24.229m10.678-42.454a21.269 21.269 0 0115.409-6.671c.575 0 1.151.021 1.662.064a23.82 23.82 0 0114.706 6.607c3.687 3.666 13.214 16.5 26.364 58.141-41.645-13.151-54.475-22.677-58.141-26.364a23.705 23.705 0 01-6.607-14.706 21.244 21.244 0 016.607-17.071" class="cls-1" transform="translate(55.458 57.269)"/><path id="Path_30" d="M133.335 71.33l13.576-6.607-13.469-6.923-1.534-.831c-25.064-13.683-58.865-29.987-77.6-29.987-18.457 0-37.574 14.045-37.574 37.553 0 23.529 19.117 37.574 37.574 37.574 18.734 0 52.536-16.3 77.6-29.987l1.428-.789M54.308 87.017c-9.335 0-22.485-6.969-22.485-22.485 0-15.494 13.15-22.463 22.485-22.463 5.2 0 21.014 2.323 59.761 22.463-38.747 20.162-54.561 22.485-59.761 22.485" class="cls-1" transform="translate(-16.734 229.956)"/><path id="Path_31" d="M73.244 50.134l-6.628-13.6-6.927 13.515c-.128.234-.4.746-.831 1.513-13.683 25.064-29.987 58.865-29.987 77.6 0 18.478 14.045 37.574 37.574 37.574 23.508 0 37.553-19.1 37.553-37.574 0-15.025-10.081-41.112-29.965-77.578-.426-.767-.725-1.3-.789-1.449m-6.8 101.512c-15.516 0-22.485-13.15-22.485-22.485 0-5.2 2.323-21.014 22.485-59.761 20.162 38.768 22.463 54.56 22.463 59.761 0 9.335-6.969 22.485-22.463 22.485" class="cls-1" transform="translate(229.8 422.367)"/><path id="Path_32" d="M107.451 39.4c-27.408 8.056-62.83 20.418-76.086 33.674A38.939 38.939 0 0020.389 97.3a36.535 36.535 0 0010.976 28.88 36.641 36.641 0 0026.108 11.082c.916 0 1.854-.021 2.792-.106A38.766 38.766 0 0084.5 126.18c10.635-10.614 21.952-36.21 33.653-76.043.256-.853.426-1.428.469-1.6l4.923-14.279-14.429 4.646c-.256.085-.831.234-1.662.49m-33.61 76.129a24.048 24.048 0 01-14.727 6.607 21.366 21.366 0 01-17.071-6.607 21.283 21.283 0 01-6.607-17.093 23.82 23.82 0 016.607-14.706c3.666-3.687 16.5-13.214 58.141-26.364-13.129 41.666-22.677 54.475-26.342 58.162" class="cls-1" transform="translate(55.377 376.095)"/><path id="Path_33" d="M52.029 39.643l-1.577-.469-14.3-4.923L40.8 48.7c.085.234.256.81.49 1.662 8.056 27.387 20.417 62.83 33.674 76.065a38.827 38.827 0 0024.23 10.973c.938.064 1.876.107 2.792.107a36.678 36.678 0 0026.108-11.083c16.624-16.624 13.043-40.068 0-53.111-10.635-10.631-36.232-21.969-76.065-33.67m65.387 76.129c-10.976 10.955-25.191 6.586-31.8 0-3.664-3.687-13.216-16.518-26.362-58.162 41.666 13.15 54.475 22.677 58.162 26.364a23.937 23.937 0 016.607 14.706 21.284 21.284 0 01-6.607 17.093" class="cls-1" transform="translate(377.676 375.932)"/><path id="Path_34" d="M131.054 26.984c-15.047 0-41.155 10.081-77.6 29.987l-1.449.789-13.575 6.628 13.491 6.927 1.534.81c25.064 13.683 58.865 29.987 77.6 29.987 18.457 0 37.553-14.045 37.553-37.553 0-23.529-19.1-37.574-37.553-37.574m0 60.059c-5.222 0-21.036-2.323-59.782-22.485 38.746-20.162 54.56-22.485 59.782-22.485 9.314 0 22.464 6.969 22.464 22.485 0 15.494-13.15 22.485-22.464 22.485" class="cls-1" transform="translate(423.968 230.057)"/><path id="Path_35" d="M379.606 314.982a36.966 36.966 0 01-7.971.866 34.675 34.675 0 01-23.785-9.275c-9.42-8.726-18.5-18.973-27.536-36.235a96.2 96.2 0 00-12.915 7.712 142.407 142.407 0 0030.157 39.468 51.441 51.441 0 0081.649-17.769 50.734 50.734 0 00-42.753-70.21 137.186 137.186 0 00-65.852 12.212 120.9 120.9 0 01.043-46.525 138.912 138.912 0 0065.813 12.424 50.74 50.74 0 10-38.9-87.958 142.811 142.811 0 00-30.051 39.214 100.8 100.8 0 0012.979 7.775 126.71 126.71 0 0127.365-36.066 35.908 35.908 0 1127.536 62.139c-8.994.613-34.74.824-60.762-12.191a117.263 117.263 0 01-31.436-22.312 114.447 114.447 0 01-22.634-31.207 120.751 120.751 0 01-12.148-60.3 35.076 35.076 0 0116.922-27.087 36.074 36.074 0 0118.926-5.367 37.2 37.2 0 0114.173 2.831 35.224 35.224 0 0121.142 25.439 34.481 34.481 0 01-8.482 31.481c-8.759 9.3-21.952 20.283-36.423 27.192a101.4 101.4 0 007.822 12.825 143.044 143.044 0 0039.62-29.812A49.731 49.731 0 00334.3 59.412 50.615 50.615 0 00304.2 23.3a51.348 51.348 0 00-46.8 3.634 49.991 49.991 0 00-24.041 38.75 136.76 136.76 0 0012.4 65.287 123.191 123.191 0 01-23.486 2.24 120.772 120.772 0 01-23.4-2.24 133.7 133.7 0 0012.3-65.287 49.937 49.937 0 00-24.041-38.75 51.3 51.3 0 00-46.781-3.634 50.642 50.642 0 00-30.115 36.108 49.742 49.742 0 0012.212 44.835 143.148 143.148 0 0039.727 29.876 99.584 99.584 0 007.843-12.867 127.724 127.724 0 01-36.551-27.213 34.424 34.424 0 01-8.482-31.481 35.178 35.178 0 0121.142-25.439 37.035 37.035 0 0114.173-2.828 36 36 0 0118.9 5.367 35.045 35.045 0 0116.944 27.087 118.437 118.437 0 01-12.127 60.3 115.837 115.837 0 01-22.677 31.143 119.752 119.752 0 01-92.3 34.439 35.685 35.685 0 01-4.2-70.527 36.681 36.681 0 017.971-.866 34.622 34.622 0 0123.764 9.275 130.488 130.488 0 0127.557 36.256 100.7 100.7 0 0012.915-7.733 142.443 142.443 0 00-30.179-39.468 51.434 51.434 0 00-81.627 17.748 50.72 50.72 0 0042.732 70.231 137.407 137.407 0 0065.877-12.191 120.789 120.789 0 01-.043 46.5 139.6 139.6 0 00-65.813-12.445 50.6 50.6 0 00-39.109 23.854 50.09 50.09 0 00-3.644 46.377 51.4 51.4 0 0081.627 17.748 142.435 142.435 0 0030.072-39.214 100.8 100.8 0 00-12.979-7.775 126.743 126.743 0 01-27.387 36.066 35.121 35.121 0 01-31.734 8.409 35.71 35.71 0 014.22-70.548c8.973-.613 34.718-.824 60.762 12.191a117.266 117.266 0 0131.436 22.312 114.93 114.93 0 0122.613 31.207 120.6 120.6 0 0112.17 60.3 35.045 35.045 0 01-16.941 27.091 36.02 36.02 0 01-18.926 5.367 37.089 37.089 0 01-14.152-2.831 35.132 35.132 0 01-21.142-25.439 34.424 34.424 0 018.482-31.481 129.306 129.306 0 0136.4-27.192 97.433 97.433 0 00-7.8-12.825 143.13 143.13 0 00-39.62 29.812 49.757 49.757 0 00-12.212 44.834 50.643 50.643 0 0030.115 36.108 51.3 51.3 0 0046.781-3.634 50.016 50.016 0 0024.062-38.75 137.032 137.032 0 00-12.4-65.287 123.2 123.2 0 0123.487-2.24 120.771 120.771 0 0123.4 2.24 133.787 133.787 0 00-12.319 65.287 49.936 49.936 0 0024.041 38.75 51.338 51.338 0 0046.8 3.634 50.615 50.615 0 0030.093-36.108A49.806 49.806 0 00322 332.836a143.464 143.464 0 00-39.727-29.876 99.592 99.592 0 00-7.843 12.867 127.723 127.723 0 0136.551 27.213 34.539 34.539 0 018.482 31.481 35.159 35.159 0 01-21.163 25.44 37.011 37.011 0 01-14.152 2.831 36.074 36.074 0 01-18.926-5.367 35.076 35.076 0 01-16.922-27.087 118.7 118.7 0 0112.106-60.322 117.337 117.337 0 0122.677-31.122 119.834 119.834 0 0192.326-34.439 35.689 35.689 0 014.2 70.527m-82.842-65.815a137.393 137.393 0 00-43.693 43.233 139.634 139.634 0 00-61.828 0 130.791 130.791 0 00-19.352-24.15 134.7 134.7 0 00-24.254-19.02 132.457 132.457 0 003.517-30.7 134.26 134.26 0 00-3.474-30.615A136.863 136.863 0 00172 168.731a133.851 133.851 0 0019.352-24.044 139.725 139.725 0 0061.849 0 129.9 129.9 0 0019.352 24.15 133.964 133.964 0 0024.254 19.016 135.394 135.394 0 00-.043 61.315" class="cls-1" transform="translate(74.075 75.957)"/></g></svg>