<svg xmlns="http://www.w3.org/2000/svg" width="40" height="40"><g transform="translate(-1808 -1043)"><rect width="40" height="40" fill="none" rx="5" transform="translate(1808 1043)"/><path fill="#fff" d="M1836.933 1068.667a8.628 8.628 0 00-3.425-2.597c-.8-.186-1.328 1.002-2.009 1.4-.578.337-2.646-.035-5.076-2.587-2.205-2.318-2.517-4.113-2.123-5.345.237-.746 2.073-1.086 1.925-1.88a9.161 9.161 0 00-2.58-3.577c-1.378-1.319-2.312.577-3.115 2.537-1.345 3.287 2.241 9.438 4.16 11.504 2.13 2.294 7.327 4.754 10.303 3.489 1.771-.754 3.212-1.526 1.94-2.944z"/></g></svg>