<svg xmlns="http://www.w3.org/2000/svg" width="219" height="219"><defs><style>.cls-2{fill:#fff}</style></defs><g id="Group_583" transform="translate(-854 -4016)"><g id="Ellipse_49" fill="none" stroke="#f9f9f9" stroke-width="1.5" transform="translate(854 4016)"><circle cx="109.5" cy="109.5" r="109.5" stroke="none"/><circle cx="109.5" cy="109.5" r="108.75"/></g><g id="Group_577" transform="translate(-259 -838)"><path id="Path_296" d="M642.017 172.786c0-2.751.069-4.934-.014-7.11-.191-4.995 1.641-9.428 3.75-13.778a4.264 4.264 0 013.335-2.417c7.791-1.437 13.086 3 13.178 11.017.045 3.844 1.21 7.574 1.457 11.428.2 3.068 1.038 6.088 1.38 9.154a5.749 5.749 0 003.044 4.6 21.7 21.7 0 007.742 2.707 3.488 3.488 0 001.629-.085c6.013-2.118 12.358-3.363 17.825-6.926a8.612 8.612 0 003.2-3.4c1.672-3.387 3.419-6.739 4.8-10.263 2.075-5.295 5.22-10 8.466-14.595 2.452-3.474 5.87-5.527 10.4-5.2a5.494 5.494 0 015.385 5.2 24.994 24.994 0 01-2.363 12.384c-3.459 7.856-6.45 15.918-9.636 23.894-.381.956-.74 1.924-1.164 2.861-.325.72-.808 1.42-1.728.98a1.436 1.436 0 01-.61-1.972c.941-2.509 1.888-5.017 2.894-7.5 3.07-7.58 6.2-15.134 9.234-22.728a12.479 12.479 0 00.665-7.691c-.542-2.237-1.98-3.348-4.187-2.88a9.846 9.846 0 00-6.409 3.756 85.32 85.32 0 00-9.456 16.647 51.874 51.874 0 01-6.457 11.447c-1.834 2.4-4.1 4.54-5.617 7.242-.6 1.076-1.059 2.235-1.613 3.339-.292.58-.721 1.128-1.451.743-.686-.362-.309-.983-.1-1.455.844-1.922 1.731-3.826 2.645-5.832-3.959 1.258-7.853 2.356-11.643 3.737-4.513 1.645-8.673.84-12.67-1.405-1.581-.888-2.134-.766-2 1.176.307 4.591-1.664 8.729-2.767 13.035-.2.791-.724 1.691-1.725 1.416-1.134-.312-1.319-1.318-1.012-2.36.738-2.505 1.634-4.97 2.241-7.506a28.639 28.639 0 00-.106-12.3c-1.155-5.814-1.423-11.719-2.329-17.549-.3-1.909-.345-3.826-.463-5.747a7.708 7.708 0 00-10.052-6.85 2.09 2.09 0 00-1.415 1.089c-1.691 3.635-3.106 7.331-3.053 11.448.058 4.617 0 9.236.018 13.855a15.831 15.831 0 01-2.5 8.565c-1.9 3.094-4.1 6.036-5.293 9.533a7.8 7.8 0 00-.647 2.784c.019.517-.194.814-.649.866-.694.079-.759-.47-.762-.959a15.364 15.364 0 011.8-6.29c1.343-3.014 2.834-5.962 4.243-8.947.2-.417.625-.865.329-1.336-.4-.636-.976-.2-1.485-.088-6.625 1.512-13.248 3.027-19.849 4.649a22.374 22.374 0 01-13.189-.914 5.534 5.534 0 01-2.831-2.873c-.729-1.319-1.379-2.682-2.215-4.325-.98 1.3-1.833 2.41-2.653 3.539-.524.723-.949 1.523-1.512 2.211-.611.747-1.4 1.652-2.395.8-.8-.692-.334-1.618.245-2.4 2.791-3.749 5.729-7.387 8.36-11.263 1.089-1.6.75-2.491-.635-3.56a74.037 74.037 0 00-13.724-7.918 2.313 2.313 0 00-3.231.633c-2.488 3.093-5.65 5.657-7.268 9.424-.268.622-.686 1.142-1.414.755-.622-.331-.4-.907-.179-1.451 1.311-3.184 3.71-5.6 5.8-8.231q3.463-4.362 6.931-8.721a9.478 9.478 0 002.186-5.907c-.047-10.336 2.389-20.114 6.08-29.687a20.207 20.207 0 00.346-12.77c-.655-2.421-2.575-3.482-4.438-4.616-1.12-.681-1.633.516-2.1 1.128a79.221 79.221 0 00-8.037 12.215c-5.165 10.182-10.579 20.218-17.383 29.436-2.245 3.04-5.224 5.489-7.042 8.871-.248.462-.749.955-1.348.512-.557-.413-.011-.872.161-1.272 1.307-3.036 3.749-5.239 5.752-7.761 4.435-5.58 7.669-11.9 11.095-18.087 3.527-6.375 6.141-13.236 10.134-19.36 1.76-2.7 3.778-5.236 5.738-7.8.4-.522.771-.909.529-1.622-2.049-6.047-2.16-12.425-3.153-18.651-.42-2.644-.883-5.283-1.193-7.941-.1-.845-.533-2.255.836-2.382 1.326-.122 1.4 1.226 1.547 2.245 1.111 7.812 2.192 15.628 3.347 23.433.271 1.831.734 3.58 2.661 4.585 6.536 3.408 7.122 9.437 6.616 15.781a7.061 7.061 0 00.625 4.147c1.743 3.278 3.4 6.6 5.129 9.889a14.189 14.189 0 001.592 2.4 2.24 2.24 0 002.024.81c.847-.2.471-1.2.4-1.8-.2-1.536.549-2.166 1.765-3.027a51.176 51.176 0 008.637-8.257c3.552-4.039 7-8.541 11.5-11.186 4.128-2.427 7.217-5.63 10.311-8.892a150.214 150.214 0 0114.47-13.485 16.1 16.1 0 011.326-.971 1.119 1.119 0 011.508.062 1.056 1.056 0 01.057 1.5c-.909 1.2-1.82 2.418-2.84 3.526-5.914 6.425-11.884 12.8-17 19.911-.866 1.2-.428 2.585-1.206 3.824-4.877 7.742-8.592 16.118-12.893 24.177-.682 1.278-1.957 1.829-2.765 2.928a1.836 1.836 0 00-.363 2.194c.991 2.056.848 3.874-1.08 5.459a2.193 2.193 0 00-.314 3.526 28.947 28.947 0 012.9 4.737c3.78 6.938 9.754 11.967 15.361 18.082m-26.452 12.743a9.92 9.92 0 004.4-.5c6.357-2.011 12.892-3.285 19.381-4.745 2.821-.635 2.835-.655 2.7-3.5a3.794 3.794 0 00-1.545-2.554c-6.675-6.716-13.851-13-18.064-21.777-.959-2-1.275-1.984-2.457.036-3.721 6.362-8.6 11.99-11.782 18.694-.153.323-.719.428-.939.743-1.164 1.652-2.989 3.073-2.945 5.246a8.65 8.65 0 007.09 7.988 13.088 13.088 0 004.166.36m7.677-42.019a5.162 5.162 0 00-1.531-2.557c-2.933-2.468-5.64-5.2-9.029-7.127-1.418-.808-2.324-.84-3.326.421-4.318 5.428-9.142 10.413-13.7 15.627-1.572 1.8-1.472 1.851.665 2.792 5.031 2.212 9.971 4.589 13.94 8.527.75.743 1.261.457 1.6-.238 2.322-4.7 6.31-8.436 7.853-13.576.183-.611.693-.549 1.077-.784 1.221-.741 1.721-2.052 2.449-3.085m5.248-13.351c1.807-3.358 3.612-6.376 5.092-9.546a88.218 88.218 0 014.975-9.487c.4-.635 1.206-1.328.465-2.212a3.469 3.469 0 00-3.023-.939c-.548.027-1.107.75-1.58 1.236-4.133 4.243-8.211 8.54-12.385 12.742-1.938 1.95-1.987 1.819.428 3.3 2.155 1.319 4.541 2.379 6.028 4.91m-26.936-11.17c-2.942 5.28-6.465 20.66-6.344 27.64a4.274 4.274 0 00.475-.407c4.089-4.7 8.166-9.417 12.274-14.1.564-.643.271-1.136-.06-1.655-2.35-3.684-4.239-7.624-6.345-11.475m14.9 10.756c-.772-.148-1.2-.261-1.286.184-.15.8-.419 1.827.275 2.343a55.138 55.138 0 016.763 5.651c.243.251.619.4.911.1a8.172 8.172 0 001.963-2.308c.273-.721-.97-.96-1.421-1.541a11.588 11.588 0 00-1.594-1.6 15.837 15.837 0 00-5.611-2.824m28.7-29.835c-1.5 1.582-3.02 3.152-4.5 4.755-.367.4-1.317.81-.751 1.385.694.7 1.165-.286 1.611-.707 1.6-1.513 2.482-3.572 3.639-5.433m-44.476 62.33c0-1.364-.029-2.728.012-4.091.02-.647-.213-1.189-.807-1.214-.754-.032-.481.706-.47 1.1a7.062 7.062 0 001.265 4.2m4.359-2.069c-1.052 1.545-.578 3.263-.436 4.956a41.132 41.132 0 01.436-4.956M602.68 159l-.23.006v4.778h.23zm4.126 8.124v-5.05c0 1.687.031 3.376 0 5.05m-13.347-12.844c.817.685-.4 2.611.611 3.956l-.611-3.956" class="cls-2" transform="translate(576 4836)"/><path id="Path_297" d="M746.6 186.364c-1.231-.415-1.02-1.272-.584-2.13a51.734 51.734 0 015.186-7.913 7.934 7.934 0 013.087-2.639c.991-.436 1.987-.522 2.355.7.347 1.151-.437 1.244-1.424 1.3-.785.045-1.391.746-1.923 1.425-1.912 2.444-3.438 5.135-5.091 7.745-.406.641-.729 1.334-1.606 1.513" class="cls-2" transform="translate(540.675 4815.948)"/><path id="Path_298" d="M595.458 157.041a79.887 79.887 0 012.412-15.427 5.271 5.271 0 01.542-1.324.826.826 0 011.036-.445c.51.17.5.552.385.993a70.288 70.288 0 00-2.254 15.381 2.922 2.922 0 01-.2.793c-.234.7-.327 1.755-1.232 1.636-.878-.115-.482-1.25-.69-1.609" class="cls-2" transform="translate(569.034 4822.29)"/><path id="Path_299" d="M668.583 184.59a18.3 18.3 0 01.479-5.556 4.76 4.76 0 012.375-2.962 1.325 1.325 0 011.848.29c.447.7-.092 1.156-.649 1.479-1.637.951-2.015 2.49-2.027 4.213-.015 2.263-.012 4.527-.045 6.79-.011.824-.037 1.913-1.1 1.854-.844-.046-.86-1.089-.871-1.841-.019-1.235-.006-2.469-.006-4.267" class="cls-2" transform="translate(555.23 4815.486)"/><path id="Path_300" d="M602.91 125.78a14.837 14.837 0 01.937-4.55 21.361 21.361 0 00.584-6.538c-.007-.623 0-1.305-.676-1.6-.423-.185-1.248.206-.943-.806a1.4 1.4 0 011.145-1.052 1.148 1.148 0 011.411.908 16.558 16.558 0 01.656 4.671 27.265 27.265 0 01-1.7 7.6 1.658 1.658 0 01-1.418 1.367" class="cls-2" transform="translate(567.658 4827.687)"/><path id="Path_301" d="M640.3 219.828c2.187-2.666 5.3-3.735 8.254-5.035a1.18 1.18 0 011.742.895c.116.834-.363 1.051-1.281 1.033-1.24-.024-2.244.907-3.342 1.438a14.662 14.662 0 01-5.374 1.669" class="cls-2" transform="translate(560.569 4808.155)"/><path id="Path_302" d="M599.555 205c-2.753-.872-4.363-2.757-6.138-4.365a1.161 1.161 0 01.192-1.808c.621-.506.931.043 1.314.448 1.6 1.695 3.985 2.726 4.631 5.726" class="cls-2" transform="translate(569.486 4811.183)"/><path id="Path_303" d="M602.2 190c-.13-.747.07-1.389.869-1.285a3.432 3.432 0 012.761 2.162c-1.05.438.139 2.163-1.214 2.287s-2.428-1.414-2.416-3.164" class="cls-2" transform="translate(567.769 4813.057)"/><path id="Path_304" d="M729.4 218.766c.32-2.222.457-3.988 2.083-5.144.364-.258.629-.945 1.146-.548a1.237 1.237 0 01.153 1.692 14.3 14.3 0 01-3.382 4" class="cls-2" transform="translate(543.748 4808.479)"/><path id="Path_305" d="M663.2 217.977a4.253 4.253 0 011.263-4.329c.3-.284.67-.576 1.079-.286s.3.748.118 1.119a7.776 7.776 0 01-2.46 3.5" class="cls-2" transform="translate(556.27 4808.424)"/><path id="Path_306" d="M595.381 205.39c.126.636-.187.827-.664.826-1.1-.006-1.58-.618-1.6-1.678-.013-.693.23-1.371.947-1.311 1.336.113.729 1.575 1.317 2.163" class="cls-2" transform="translate(569.476 4810.315)"/><path id="Path_307" d="M600.1 199.258c.174.709-.175.877-.64.839a1.739 1.739 0 01-1.67-1.529c-.127-.66.114-1.448.816-1.371 1.158.127.841 1.56 1.494 2.061" class="cls-2" transform="translate(568.601 4811.454)"/><path id="Path_308" d="M736.927 202.9c.436-1.648.74-2.876 1.706-3.808.293-.283.643-.537 1.06-.179a.679.679 0 01.055.928 6.2 6.2 0 01-2.821 3.059" class="cls-2" transform="translate(542.326 4811.163)"/><path id="Path_309" d="M631.864 157.657c-.071 1.126-1.078 1.2-1.841.652a77.266 77.266 0 01-8.356-6.25 1.272 1.272 0 01-.288-1.687 1.115 1.115 0 011.652-.211 618.031 618.031 0 018.358 5.925c.422.3.482.808.475 1.571" class="cls-2" transform="translate(564.18 4820.383)"/><path id="Path_310" d="M630.544 164.962c.868.221.773.813.4 1.39-.668 1.037-1.418 2.021-2.106 3.044-1.491 2.219-2.932 4.471-4.467 6.658-.429.61-.931 1.735-1.849 1.18-.835-.506-.053-1.368.276-1.992a72.218 72.218 0 016.551-9.457 1.869 1.869 0 011.195-.823" class="cls-2" transform="translate(563.995 4817.539)"/><path id="Path_311" d="M607.212 167.3c-.268-.179-.584-.274-.671-.471a1.243 1.243 0 01.492-1.455 601.29 601.29 0 015.476-4.986 6.962 6.962 0 01.979-.746c.575-.358 1.094-1.419 1.863-.536.64.735-.269 1.232-.714 1.654a438.727 438.727 0 01-6.367 5.845 8.554 8.554 0 01-1.059.7" class="cls-2" transform="translate(566.959 4818.709)"/></g></g></svg>