<svg xmlns="http://www.w3.org/2000/svg" width="219" height="219"><defs><style>.cls-2{fill:#050a23}</style></defs><g id="Group_584" transform="translate(-421 -4016)"><g id="Ellipse_49" fill="none" stroke="#050a23" stroke-width="1.5" transform="translate(421 4016)"><circle cx="109.5" cy="109.5" r="109.5" stroke="none"/><circle cx="109.5" cy="109.5" r="108.75"/></g><g id="Group_575" transform="translate(-121 -818.334)"><path id="Path_211" d="M59.637 158.7a7.982 7.982 0 012.241 1.924c5.2-7.506 10.368-14.938 15.486-22.4.445-.65 1.891-1.3.916-2.155a2.826 2.826 0 00-3.356-.677c-1.864 1.076-3.915.472-5.883.578-.636.034-1.311-.126-1.37-.913-.066-.882.624-1.227 1.338-1.269 1.291-.076 2.59-.022 3.885-.022.139-.2.277-.406.416-.608-2.145-2.025-4.308-4.03-6.426-6.084-1.181-1.145-2.03-2.175-.966-4.153.681-1.266.3-3.164.21-4.768a6.932 6.932 0 011.421-4.67c5.464-7.7 10.25-15.848 15.714-23.554 7.192-10.142 14.064-20.514 21.377-30.566 6.41-8.812 12.906-17.561 18.98-26.611 1.792-2.672 3.382-5.481 5.063-8.227.2-.328.39-.662.6-.985a1.008 1.008 0 011.387-.454c.7.389.207.893-.018 1.362a96.588 96.588 0 01-7.595 12.611c-11.74 17.171-24.363 33.717-35.849 51.076q-7.749 11.705-15.489 23.422c-.589.89-1.31 1.725-1.058 2.937.055.267-.066.814-.182.836-3.227.624-.55 1.976-.227 2.739a24.993 24.993 0 009.819 11.268c2.433 1.582 5.115 1.424 7.708 1.939.669.132 1.123-.469 1.475-.966 4.8-6.8 10.7-12.649 16.192-18.853 4.85-5.477 8.734-11.668 12.869-17.676 2.726-3.96 5.609-7.811 8.791-12.223a67.1 67.1 0 00-11.238 13.8c-2.107 3.513-5.215 6.231-7.813 9.357-1.912 2.3-4.007 4.453-6.072 6.623-.466.491-1.055 1.513-1.838.736-.712-.706.118-1.4.641-1.929 3.746-3.758 7.089-7.87 10.543-11.887 3.415-3.968 5.9-8.6 9.221-12.634 3.16-3.842 7.211-6.952 9.5-11.515a1.093 1.093 0 011.537-.62c.7.4.47 1.03.115 1.6-.238.381-.464.771-.657 1.1 5.818-6.116 10.659-13.082 15.741-19.856a8.652 8.652 0 01.92-1.032c.675-.649 1.518-1.461 2.376-.674.992.909-.083 1.645-.664 2.288-3.465 3.824-5.914 8.438-9.352 12.252-11.612 12.878-20.483 27.775-30.866 41.555-3.3 4.376-7.5 7.916-10.949 12.137-2.283 2.793-4.587 5.569-6.857 8.371a2.788 2.788 0 00-.74 2.357c6.112-.921 12.211-1.784 18.285-2.792a22.078 22.078 0 014.816-.278c4.392.235 8.74-.492 13.117-.472a6.652 6.652 0 012.029.292 1 1 0 01.522 1.166.976.976 0 01-.99.8 26.941 26.941 0 01-3.877.4c-12.055-.521-23.813 1.969-35.672 3.436-.3.037-.735.3-.875.177-2.008-1.7-3.571.162-5.366.476a4.467 4.467 0 00-3.256 2.146c-5.087 7.57-10.24 15.113-15.287 22.725a5.714 5.714 0 01-2.811 2.222 1.342 1.342 0 01-1.839-.483c-1.817-4-5.972-5-9.16-7.219a24.265 24.265 0 00-3.752-1.735c-.889-.412-1.687-1.03-1.442-2.1.338-1.471.612-3.083 2-3.994.712-.467 1.256.3 1.781.714.826.647 1.6.941 2.322-.137 3.023-4.5 6.054-8.991 9.247-13.732-2.921-.41-5.522.5-8.161.517-.531 0-1.06.2-1.592.215-7.525.186-15.05.433-22.577.511-7.981.082-15.954.067-23.821 1.762-1.074.231-3.013.726-3.224-.583-.186-1.16 1.809-.779 2.794-1.032 6.737-1.729 13.648-1.779 20.549-1.974q16.672-.47 33.313-1.654c3.4-.242 5.923-.9 7.457-4.047.306-.627.855-1.354 1.58-1.05a4.684 4.684 0 011.793 1.608c.357.491-.167.918-.641.9-1.668-.061-2.188 1.329-2.883 2.335-3.84 5.55-7.6 11.154-11.383 16.745-2.3 3.4-2.3 3.4-6.038 2.4a74.012 74.012 0 0112 6.81l.024.039m8.708-38.16c-1.219 2.374.638 3.358 1.344 4.865a16.624 16.624 0 006.277 6.815c2.567 1.7 5.574 2.206 7.372 1.523-7.057-1.94-11.446-6.965-14.994-13.2" class="cls-2" transform="translate(575.971 4836)"/><path id="Path_212" d="M65.123 169.991l-.023-.038a61.328 61.328 0 00-4.877-4.167c-1.412-.986-1.524-1.912-.711-3.258 2.852-4.723 5.7-9.449 8.943-13.919 1.306-1.8 2.6-3.609 3.927-5.393.363-.489.589-1.512 1.5-.824.692.521.376 1.248-.051 1.848-2.308 3.251-4.681 6.457-6.916 9.756-1.8 2.663-3.421 5.454-5.171 8.155-.555.856-.674 1.389.34 2.035a18.763 18.763 0 013.195 2.62c1.305 1.323 2.011.782 2.751-.563 3.6-6.547 8.9-11.906 12.817-18.236.408-.659.97-1.448 1.815-.837.89.643.136 1.376-.27 1.984-3.227 4.855-6.81 9.449-10.294 14.117a33.571 33.571 0 00-3.246 5.55c-.9 1.869-1.959 2.455-3.732 1.17" class="cls-2" transform="translate(570.484 4824.712)"/><path id="Path_213" d="M72.3 207.738c-.811-.189-2.97.574-2.956-.906s2.156-.781 3.347-.821c2.893-.1 5.548-1.132 8.283-1.848 9.441-2.472 18.3-6.575 27.471-9.817a28.636 28.636 0 004.79-2.721c.563-.335 1.122-.6 1.679-.1.647.584.383 1.257.048 1.893a4.592 4.592 0 01-2.285 1.85 108.583 108.583 0 01-13.313 5.032c-7.036 2.365-13.967 5.057-21.226 6.714a17.576 17.576 0 01-5.837.721" class="cls-2" transform="translate(569.504 4820.064)"/><path id="Path_214" d="M65.705 188.287c-3.093-.045-5.252.186-7.333-.539-1.362-.474-2.083-1.322-1.471-2.8.229-.551.624-1.143 1.339-1.086.8.064.547.725.587 1.238.115 1.492 1.457 1.2 2.262 1.276a32.278 32.278 0 0010.037-.684c3.563-.794 7.022-2.06 10.518-3.149a3.323 3.323 0 001.888-1.6c.261-.445.559-1.028 1.233-.685a1.472 1.472 0 01.616 1.416c.016 1.7-1.276 2.442-2.591 2.826-5.91 1.728-11.607 4.533-17.084 3.78" class="cls-2" transform="translate(570.704 4821.113)"/><path id="Path_215" d="M77.317 195.208c-.8 0-1.11.017-1.415 0-.669-.045-1.622.1-1.626-.822 0-.8.878-.871 1.584-1 6.217-1.176 12.006-3.665 17.881-5.89a5.591 5.591 0 002.2-1.978 1.075 1.075 0 011.463-.225c.55.337.477.9.279 1.439a3.72 3.72 0 01-1.99 2.13 111.136 111.136 0 01-16.808 6.213 5.987 5.987 0 01-1.57.14" class="cls-2" transform="translate(569.037 4820.646)"/><path id="Path_216" d="M102.475 120.674c1.247-2.52 3.561-4.108 5.245-6.251 3.887-4.947 7.953-9.755 11.946-14.62a6.474 6.474 0 01.571-.72c.606-.545 1.286-1.618 2.072-.978.948.769-.208 1.464-.692 2.019-5.273 6.092-10.049 12.61-15.7 18.379a6.224 6.224 0 01-3.443 2.171" class="cls-2" transform="translate(566.367 4828.902)"/><path id="Path_217" d="M96.745 139.033c-1.943.68-3.42 1.393-5.724.277a20.984 20.984 0 01-7.151-5.2 19.993 19.993 0 01-1.21-1.676c-.455-.662-.882-1.531-.166-2.066.855-.639 1.132.485 1.474.95a15.355 15.355 0 0011.09 6.605 2.153 2.153 0 011.687 1.108" class="cls-2" transform="translate(568.296 4825.847)"/><path id="Path_218" d="M3.072 168.714c1.169 1.147 2.726 1.328 3.489 2.687-.284.118-.515.311-.665.262-1.864-.623-4.746-.129-5.113-2.6-.371-2.5 2.485-2.921 4.169-3.92a56.725 56.725 0 015.545-2.757c.745-.339 1.811-.655 2.183.364.32.874-.8.921-1.336 1.2a61.119 61.119 0 00-8.271 4.764" class="cls-2" transform="translate(576 4822.828)"/><path id="Path_219" d="M123.023 166.978c1.306-1.541 2.855-2.054 4.211-2.852.794-.468 1.805-.909 1.851-1.886.057-1.21-1.209-1.5-2.046-1.89a13.994 13.994 0 00-4.322-1.494c-.681-.074-1.544-.154-1.373-1.062.129-.689.914-.688 1.551-.542a20.825 20.825 0 016.457 2.309c2.443 1.51 2.353 3.991-.131 5.426a11.748 11.748 0 01-6.2 1.991" class="cls-2" transform="translate(564.582 4823.29)"/><path id="Path_220" d="M25.694 171.88c-2.66.464-6.02-1.292-6.665-3.393a2.861 2.861 0 011.678-3.829c3.1-1.085 6.318-1.856 9.488-2.749.491-.139.977-.071 1.074.507.091.54-.448.492-.78.6-2.615.882-5.267 1.668-7.836 2.667-2.345.912-2.5 2.019-.593 3.619 1.041.875 2.222 1.583 3.636 2.575" class="cls-2" transform="translate(574.287 4822.848)"/><path id="Path_221" d="M157.681 61.543c-.069.1-.194.285-.332.463q-4.518 5.777-9.044 11.545c-.272.346-.63.823-1.107.511-.414-.271-.347-.859-.177-1.276a6.283 6.283 0 01.894-1.585c2.6-3.2 5.23-6.384 7.844-9.577.4-.483.78-.968 1.506-.837.354.064.512.291.417.756" class="cls-2" transform="translate(562.161 4832.419)"/><path id="Path_222" d="M87.307 112.338a1.463 1.463 0 01-.1.439q-2.8 4.735-5.618 9.46c-.33.55-.792 1.086-1.477.661s-.423-1.074-.092-1.626q2.6-4.326 5.213-8.639a1.519 1.519 0 011.488-.885.635.635 0 01.585.591" class="cls-2" transform="translate(568.525 4827.593)"/><path id="Path_223" d="M93.17 104.068c-.563.064-.78-.244-.739-.665a2.324 2.324 0 01.357-1.07q3.288-4.7 6.633-9.361c.244-.339.66-.81 1.112-.342a1.134 1.134 0 010 1.045 109 109 0 01-6.843 10.051 1.76 1.76 0 01-.52.343" class="cls-2" transform="translate(567.319 4829.421)"/><path id="Path_224" d="M105.619 127.117a7.174 7.174 0 01-.451.861 945.965 945.965 0 01-5.848 8.532c-.333.478-.822 1.153-1.477.705-.722-.494-.084-1.147.211-1.6a505.02 505.02 0 015.6-8.411c.333-.491.728-1.034 1.461-.936.36.047.46.35.5.848" class="cls-2" transform="translate(566.837 4826.218)"/><path id="Path_225" d="M103.456 125.312c-.159 2.554-1.729 3.523-2.707 4.789-1.307 1.691-2.9 3.167-3.923 5.076-.3.563-.625.9-1.227.444a.907.907 0 01-.227-1.4 57.042 57.042 0 018.083-8.909" class="cls-2" transform="translate(567.062 4826.308)"/><path id="Path_226" d="M91.979 134.248c.434.732 1.662 1.08 1.066 1.907-.551.765-1.418.044-2.045-.3a6.894 6.894 0 01-1.8-1.377c-.509-.57-.635-1.424.381-1.537a11.832 11.832 0 004.786-2.033c.49-.294 1.041-.538 1.4.059.326.549-.062 1.068-.514 1.36-1.014.655-2.08 1.231-3.272 1.926" class="cls-2" transform="translate(567.661 4825.807)"/><path id="Path_227" d="M143.414 75.075a8.778 8.778 0 01-.769 1.189c-1.993 2.2-4.012 4.372-6.011 6.564-.311.34-.634.852-1.094.537-.534-.367-.321-.965.006-1.422a39.852 39.852 0 016.531-6.993c.425-.364.875-.53 1.336.126" class="cls-2" transform="translate(563.267 4831.107)"/><path id="Path_228" d="M106.938 160.075c1.784.4 3.714.53 5.432 1.429 1.631.855 1.727 2.267.266 3.168-.459.282-1.01.636-1.477.232-.521-.453.133-.767.349-1.1.6-.932-.226-1.048-.741-1.207-1.381-.424-2.787-.768-4.184-1.137-.473-.126-1.251.063-1.186-.709.078-.889.926-.523 1.542-.674" class="cls-2" transform="translate(566.091 4823.016)"/><path id="Path_229" d="M87.978 128.2c1.7-1.163 3.6-1.458 5.526-2.112-.837 2.34-3.169 3.2-5.526 2.112" class="cls-2" transform="translate(567.74 4826.234)"/><path id="Path_230" d="M93.844 129.019c.674-.164 1.058.056.958.491-.368 1.58-1.872 1.59-3.04 2.014-.386.14-1.157.073-.883-.552.57-1.307 2.04-1.444 2.965-1.953" class="cls-2" transform="translate(567.471 4825.961)"/></g></g></svg>