<svg xmlns="http://www.w3.org/2000/svg" width="219" height="219"><defs><style>.cls-2{fill:#050a23}</style></defs><g id="Group_582" transform="translate(-1281 -4016)"><g id="Ellipse_49" fill="none" stroke="#050a23" stroke-width="1.5" transform="translate(1281 4016)"><circle cx="109.5" cy="109.5" r="109.5" stroke="none"/><circle cx="109.5" cy="109.5" r="108.75"/></g><g id="Group_579" transform="translate(464.58 -1161)"><path id="Path_231" d="M424.569 429.77c-.933 1.758-2.748 2.417-4.308 3.34a25.6 25.6 0 01-8.837 3.15c7.462-.52 14.75-1.507 20.207-7.59-.288 2.81-2.4 4.161-4.15 5.767 3.587.659 6.584-2.388 10.414-1.41a14.222 14.222 0 01-5.959 3.75 28.808 28.808 0 01-6.907 1.924c-2.408.309-4.833.478-7.22.891 7.687 2.108 14.091-2.22 20.945-4.162-.815 1.772-2.326 2.594-10.585 5.728 3.726 1.192 7.021.452 11.651-2.619.439-.29.774-.781 1.6-.754-.179 1.03-.948 1.493-1.573 2.026a14.865 14.865 0 01-11.322 3.918 14.9 14.9 0 00-7.3 1.027c8.053 1.712 15.455 1.648 22.861-2-1.167 1.975-4.238 3.685-7.478 4.194a41.381 41.381 0 01-16.52-.595 3.28 3.28 0 00-3.233.471c4.918 2.121 10.028 1.889 15 2.574a16.915 16.915 0 01-8.3.769 33.02 33.02 0 01-7.809-1.675 3.4 3.4 0 00-2.4.028c-7.333 2.6-13.858 6.831-20.831 10.165.544.081 1.052-.379 1.738.423-2.87 1.2-5.66 2.343-8.426 3.537-2.263.979-4.478 2.072-6.751 3.029-11.217 4.72-22.363 9.762-34.609 11.167a34.867 34.867 0 01-10.408-.674 48.138 48.138 0 00-7.181-.347c-3.324-.141-6.7.149-9.854-1.307a1.678 1.678 0 00-1.008.074c-2.545.689-5.02.172-7.5-.382-5.066-1.134-10.293-.782-15.394-1.633a7.476 7.476 0 00-3.4.684c-3.971 1.264-7.731-.609-8.761-4.721a5.209 5.209 0 01.17-2.8 55.933 55.933 0 014.628-10.807 22.171 22.171 0 01-8.263 3.722 17.534 17.534 0 01-9.043-.132c3.714-.752 7.555-.729 11.168-1.983 3.756-1.3 6.606-3.823 9.289-6.871-1.449-.882-3.128-.806-4.636-1.255-.877-.261-.978.749-1.359 1.27-.368.5-.516 1.581-1.39 1.1a1.278 1.278 0 01-.112-2c.8-.874.229-1.574-.238-2.457 2.517.266 2.833-1.788 3.638-3.139.562-.942-.565-.965-1.168-1.152a18.473 18.473 0 01-8.537-5.1 11.432 11.432 0 01-.7-.957c.481-.492.808-.158 1.137.061a20.708 20.708 0 009.946 3.91 2.155 2.155 0 002.118-.927c1.1-1.487 2.2-2.969 3.432-4.624-2.669-.5-5.469-.6-7-3.195-.86-1.456-.4-3.033-.415-4.836.381.307.62.408.624.517.171 4.44 4.329 5.536 7.6 5.281 1.092-.086 1.654-.917 2.308-1.591.954-.983 1.777-2.1 2.769-3.034 1.125-1.064.623-1.664-.373-2.381a9.52 9.52 0 01-3.457-3.621c1.514.84 3.047 1.65 4.538 2.53a2.233 2.233 0 002.939-.156c1.066-.84.754-1.5.458-2.452a2.618 2.618 0 01.738-3.059c.68.518.1 1.329.482 1.854.4.543.438 1.643 1.557 1.082.892-.446 1.717-.918.956-2.194-.559-.939-1.561-1.767-1.241-3.106.215.032.374 0 .453.073 1.02.878 1.381 2.875 2.742 2.783 1.177-.08 2.269-1.395 3.4-2.159 1.246-.84 2.986-1.415 3.6-2.585.606-1.145-.891-2.572-1.219-3.95a19.1 19.1 0 01-.145-8.746 3.22 3.22 0 011.605-2.264 16.17 16.17 0 00-.335 8.735 14.473 14.473 0 00.553 1.975c1.321 3.46 2.253 3.736 5.457 1.849.822-.485.634-1.09.62-1.755-.065-2.974-.061-2.974 1.26-4.417.273 1.116-.3 2.207.237 3.238.319.611.05 1.722 1.2 1.515 1.03-.187 2.283-.328 2.23-1.89a14.47 14.47 0 01.806-4.636 6.394 6.394 0 01.4 3.154c.044 1.452.294 2.306 2.193 1.886 4.2-.929 4.221-.824 4.436-5.287.019-.4-.082-.838.424-1.228.662 1.143.35 2.361.345 3.5-.006 1.616.52 2.365 2.226 1.857a4.8 4.8 0 011.418-.209 3.293 3.293 0 003.459-2.566 26.961 26.961 0 016.861-10.1c.613.741.054 1.115-.242 1.517a40.952 40.952 0 00-4.67 8.894c-.213.517-1.123 1.326-.1 1.7.877.316 2.074.491 2.641-.82a11.87 11.87 0 012.016-3.558c.653 1.22-.12 1.98-.362 2.792-.275.922-.513 1.559.922 1.836 3.133.606 3.347.618 4.734-2.218 1.339-2.741 2.662-5.488 4.181-8.161.234 2.452-.606 4.635-1.475 6.808-.305.763-.729 1.485-.971 2.264-.19.613-1.064 1.431.144 1.875a1.571 1.571 0 002.249-.811c.5-1.342.915-2.721 1.3-4.1a2.811 2.811 0 011.151-1.875c-.211 1.654-.4 2.989-.548 4.331-.092.829-.8 2.049.088 2.4a3.305 3.305 0 003.667-.507 31.58 31.58 0 003.414-4.371c.234-.33.386-.739 1.017-.872.124 1.729-1.295 2.749-1.749 4.139-.211.647-1.539 1.36-.347 2.017 1.153.637 2.063.047 2.477-1.282a19.13 19.13 0 011.119-2.368 2.636 2.636 0 01.187 2.534c-.466 1.255.195 1.776 1.285 2.036.067.016.134.028.2.043 5.057 1.073 5.266 1 7.534-3.735.857-1.789 1.552-3.655 2.316-5.487.179-.429.238-1.085.872-.916.58.155.389.8.386 1.249-.008 2.041-.908 3.844-1.589 5.7-.213.577-.711 1.116-.728 1.684-.033 1.1-1.846 1.968-.7 3.031 1.256 1.163 4.06.673 5.351-.512a29.194 29.194 0 005.118-6.472c.244 3.255-1.341 5.112-2.763 7.054-.384.522-1.647.94-.851 1.7a2.029 2.029 0 003.092.131c2.259-2.273 4.59-4.476 5.925-7.514.556 3.686-1.712 6.153-3.7 8.741 2.584 1.77 3.645 1.6 6.161-.992.563.5.113.968-.019 1.466s-.933 1.036-.09 1.573a1.729 1.729 0 002.252-.242c2.044-1.739 4.052-3.5 5.112-6.061a8.315 8.315 0 01.427-.77c.7 2.119-.544 4.74-3.629 7.891 2.119 1.066 2.141 1.005 3.794-.535 1.689-1.574 2.6-3.62 3.587-5.942.441 1.984-.027 3.33-2.382 7.408 1.955-1.244 2.869-3.245 4.143-5.043a8.123 8.123 0 01-1.384 4.636c-.6.875-.724 1.284.609 1.594 3.924.911 6.205.124 8.548-3.239.339-.488.464-1.152 1.547-1.605a9.181 9.181 0 01-3.733 6.3c3.962 2.135 3.906-1.893 5.554-3.428.92 2.244-2.253 3.956-.62 6.09-3.677.772-5.328 4.807-9.058 5.511a11.1 11.1 0 006.966-1.662c-1.67 3.649-4.583 4.089-13.593 3.829 9.85 1.69 17.486-1.711 22.541-10.777.216 3.244-1.637 5.6-2.911 8.113 1.344-.135 2.576-1.221 4.127-1.548a11.471 11.471 0 01-3.739 3.471 31.687 31.687 0 00-9.258 3.509c.785-.22 1.522-.571 2.294-.809 2.388-.733 4.419-2.394 6.978-2.677m-10.086-6.206c-.105 1.279-1.236 1.529-2.087 2.016-2.678 1.533-5.709 2.016-8.625 2.821a24.231 24.231 0 0011.619-4.539c-.341-.208-.752.257-.942-.25-2.69-1.406-4.473.33-6.58 1.923 2.547-.148 4.468-1.456 6.614-1.969M313.393 459.02c-.091.487-.4 1.021.307 1.393a7.114 7.114 0 001.3-3.02 5.46 5.46 0 01-1.7 1.73c.188-1.9.279-3.895 2.115-5.049 2.343-1.474 3.645-4.037 5.965-5.526a.854.854 0 00.13-1.418c-.5-.459-1.01-.021-1.2.333-.937 1.781-4.294 1.99-3.289 5.031.015.044-.182.193-.3.242-1.409.57-1.987 2.076-3.126 2.859-1.725 1.19-1.377 2.21-.21 3.426m37.674 13.02a4.6 4.6 0 003.513-.719 4.046 4.046 0 002.066-3.569 3.332 3.332 0 00-2.808-2.6c-2.492-.016-3.429-1.638-3.716-3.387a4.9 4.9 0 00-2.628-3.676c-.346 4.353 3.082 6.688 5.932 9.839-2-.235-2.492-1.757-3.8-1.879-.037 2.169 2.771 3.587 1.48 6.015-1.613-.217-1.371-2.665-3.189-2.7.089.753.631 1.388.366 2.172-1.24-.11-1.339-1.147-1.776-1.863a10.1 10.1 0 00-.647-1.216c-2.336.7-1.848-1.885-2.978-2.534-.4 1.92 1.342 3.227 1.478 4.936-.608.566-.9-.621-1.521-.081.359 1.046.184 3.061 1.11 3 2.406-.158 5.071.105 7.115-1.742m-32.414-2.281c-.365-1.312.437-2.657-.044-3.973-1.883 1.375-.006 2.649.032 3.968.6-.121.791.426 1.159.692 2.084 1.508 4.039 3.136 6.926 3a50.442 50.442 0 019.8.393 17.319 17.319 0 004.268.371c.468-.047 1.29-.121 1.054-.615-.97-2.027.2-4.662-1.781-6.352-.406.9.478 1.8-.013 2.745a1.432 1.432 0 01-.857-1.392c.009-.8-.942-.478-1.112-1a1.231 1.231 0 01.251-1.5 7.082 7.082 0 00.16-4.556c-1.094 1.626-.718 3.1-.165 4.576a5.238 5.238 0 00-1.67 3.385c-.063.588-.3 1.126-.98 1.081-.664-.043-.506-.689-.63-1.122-.994-3.466.1-6.883.208-10.256-1.669 3.992-1.8 8.5-3.593 12.588.1-1.64-1.439-3.287-.541-4.63 1.2-1.8 1.225-3.739 1.738-5.628-2.555 2.526-3.2 6.034-4.882 9.043-.31-4.5 1.2-8.59 2.572-12.759-3.384 3.377-3.988 8.4-6.868 12.047l-.469-.229 1.352-3.745c-.523.921-.971 1.884-1.439 2.838-.27.554-.254 1.731-1.021 1.4a2.4 2.4 0 01-1.237-2.261 5.93 5.93 0 01.75-2.108 56.96 56.96 0 013.895-6.036c.709-1.017 1.814-1.795 2.2-3.181-1.406.431-1.468.391-2.048 1.3-2.216 3.457-4.6 6.828-5.943 10.764a1.766 1.766 0 01-1.072 1.163m62.547-6.8c1.805-.884 3.538-1.558 5.088-2.523 6.225-3.875 12.846-7.041 19.133-10.8.877-.525 2.035-.714 2.6-1.592.853-1.328-1.067-1.506-1.216-2.47a.9.9 0 00-.112-.394c-1.957-2.628-4.628-4.35-7.357-5.99.116.36.537.694.478.836-.2.5-.677.287-1.057.183a28.712 28.712 0 01-10.182-4.711 4.4 4.4 0 00-1.749-1.026q-8.533-1.753-17.068-3.5c-.707-.145-1.152.128-.878.87 1.319 3.574.993 8.418 6.625 8.732.073 0 .133.206.219.347-1.174.724-2.356.137-3.352-.233-1.792-.668-1.924.057-1.909 1.544.029 2.94.282 5.9-.406 8.812-1.583 6.684-2.408 13.736-8.673 18.194-.15.106-.214.333-.426.678 7.883-1.4 13.86-6.851 21.2-9.312.1 1.077-.88 1.285-.957 2.35m-82.525-6.064c1.088-2.833 3.944-4.095 3.969-6.973-1.013 1.1-1.926 2.219-2.967 3.2-.97.911-1.682 2.182-3.431 2.792 1.838-3.554 4.748-5.845 6.573-8.917a86.691 86.691 0 00-10.082 8.9 3.828 3.828 0 011.321-3.04 73.436 73.436 0 017.466-6.751c.748-.587 1.739-1.087 1.809-2.59a59.183 59.183 0 00-8.393 8.143c-1.452 1.666-3.03 3.216-3.141 5.595-.145 3.089-.23 6.166 1.433 8.987.344.584 1.059 1.462.205 1.995-.744.464-1.658-.148-2.181-.752a7.573 7.573 0 01-1.931-5.066 48.644 48.644 0 01.233-7.215 32.314 32.314 0 00-5.377 11.737 2.789 2.789 0 002.762 3.607 9.707 9.707 0 005.121-1.235 3.422 3.422 0 013.658.023 7.68 7.68 0 005.269 1.2 25.737 25.737 0 016.715.659c2.191.471 4.335 1.451 6.737 1.293-5.493-5.289-10.17-10.875-11.706-18.443-1.535.514-2.158 2.046-4.06 2.86m-9.426-16.7c7.4 1.34 11.934-3.64 17.223-7.014-2.129.217-4.187.285-6.186.668-2.185.418-4.729-.424-6.52 1.16a24.3 24.3 0 00-4.517 5.186m61.359 14.821c1.215.912.445 3.608 3.235 2.8a.454.454 0 01.329.179c-.369 2.173 1.848 2.081 2.9 3.12a4.305 4.305 0 01-3.56-.222 16.655 16.655 0 012.138 1.894c.289.37 2.058.693.3 1.527a5.8 5.8 0 001.151 1.634c.738.511.866-.389 1.062-.8.589-1.232 1.069-2.516 1.646-3.756a1.677 1.677 0 00-.812-2.537c-2.39-1.224-4.944-2.139-7.129-3.756a1.046 1.046 0 00-1.262-.084m15.223-28.761c.87 1.949 1.855 3.089 3.577 3.413 4.493.847 8.994 1.656 13.471 2.581 2.054.424 4.389.5 6.01 1.767 1.9 1.479 4.043 2.25 6.532 3.721-3.131-2.652-5.907-4.644-9.544-5.161a33.927 33.927 0 01-5.513-1.553c-4.735-1.527-9.457-3.1-14.533-4.768m-70.934 16.2h-5.129c-1.762 0-4.569 2.236-4.928 3.881-.092.422.029.673.418.767a28.632 28.632 0 004.383.975c1.186.094 1.473-1.291 2.153-2.012 1.031-1.091 1.964-2.275 3.1-3.612m92.872-23.038c-2.254-1.447-4.379-1.509-6.48.083a8.21 8.21 0 01-2.361 1.2c-.771.263-1.483.7-2.233 1.026-.689.305-1.393.575-2.007.828 5.172 2.233 9.032-.638 13.081-3.136m-.173 12.378a2.081 2.081 0 00-1.3-1.952 28.036 28.036 0 00-7.767-3.1c-1.927-.487-3.98-.061-5.825-1.053-2.185-1.175-3.339-1.249-6.263-.643 7.5 1.241 14.153 4.168 21.152 6.751m-17.207-17.259c-1.79.209-3.777-.947-5.278.415a60.192 60.192 0 01-5.85 5.138c1.64.449 2.981 1.011 4.362.02a51.881 51.881 0 006.766-5.574m-32.427 2.184h.075v-2.45c0-.314.212-.67-.2-.893-1.064-.571-3.536.739-3.578 1.953a22.48 22.48 0 00.089 4.076c.1.659-.176 1.94 1.378 1.712 1.238-.182 2.345-.284 2.248-1.946-.048-.815-.009-1.634-.009-2.452m-11.706 6.591a31.417 31.417 0 01-3.185-1.38c-1.473-.841-2.89-1.784-4.293-2.738-1-.681-1.84-.1-2.672.278-.511.233-.22.678.028 1.022 2.854 3.962 5.446 4.742 10.122 2.817m13.732 16.263c.057.662-.1 1.366.553 1.557a37.709 37.709 0 014.179 1.607c.711.305 1.438-.24 1.878-.93.66-1.035-.481-1.245-.883-1.432a5.744 5.744 0 01-2.712-3.183c-.546-1.182-1.628-1.367-2.156-.26a11.646 11.646 0 00-.859 2.641m6.371-26.788c-1.1-.159-1.75.319-1.949 1.62-.216 1.406-.658 2.777-.952 4.174-.13.618-.563 1.519.372 1.723a1.62 1.62 0 002-1c.613-1.513 1.4-2.955 2.1-4.432.819-1.725.57-2.086-1.572-2.087m52.309 11.972l5.672-1.991c-1.154 2.058-3.546 2.374-4.977 4.057 3.884.273 6.128-2.61 8.921-4.2-3.764-2.172-6.595-.006-9.616 2.137m.055-3.8c-4.737-1.894-6.835 2.222-10.626 3.158 4.776 2.068 7.174-1.264 10.626-3.158m-88.377 1.416c2.87 2.3 5.1 3.039 7.84 2.539a25.162 25.162 0 01-3.056-3.839 1.277 1.277 0 00-1.91-.5 8.262 8.262 0 00-2.874 1.8m50 31.515c-.043.1-.053.182-.1.213-1.812 1.2.216 1.147.561 1.447.415.36 1.114.681 1.46-.279.362-1-.285-1.334-1-1.679-1.05-.5-2.113-.992-3.121-1.572-1.05-.6-2.576-.678-3.067-1.881s-1.506-1.485-2.389-2.073c-.541-.36-.98-.445-1.4.141-.511.715.1.984.532 1.266 2.236 1.464 4.049 3.769 7.17 3.5.432-.036 1.3.065 1.352.912m-27.73-36.543h-.021c0-.615.023-1.232-.006-1.845-.044-.916-.709-1.321-1.387-.939-.884.5-2.78-.322-2.619 1.17a4.918 4.918 0 002.613 3.95c.74.356 1.531.338 1.426-.9-.04-.475-.007-.957-.007-1.435m-26.61 13.85c-4.491-3.326-6.246-3.1-8.625.916l8.625-.916m63.164-9.4c4.25-.715 7.948-2.728 11.829-4.693-.958-.8-1.843-1-2.653-.484-2.971 1.878-6.1 3.46-9.176 5.177m-27.605-9.017a1.244 1.244 0 00-1.465 1.2c-.111 1.913-.082 3.835-.082 5.752a.721.721 0 00.764.79.8.8 0 00.816-.778c.042-2.007.774-3.882 1.091-5.837.149-.915-.238-1.1-1.124-1.123m-28.982 16.568a29.824 29.824 0 01-6.952-3.04 1.284 1.284 0 00-1.939.449c-.456.834.535.948.994 1.211 1 .579 2.117.975 3.092 1.592a3.823 3.823 0 004.8-.212m5.475 28.08c1.194.588 2.208 1.224 3.259.284 1.114-1 2.146-2.089 3.267-3.081.63-.557.243-.912-.085-1.361-.374-.514-.768-.478-1.207-.12-1.723 1.405-3.444 2.814-5.234 4.278m36.175-37.728a15.14 15.14 0 008.164-5.672c-1.418.1-2.544-.4-3.506.744-1.354 1.608-2.883 3.069-4.658 4.928m-6.784.1a15.781 15.781 0 005.281-5.121c.254-.347.806-.762.476-1.253-.29-.432-.89-.193-1.355-.229-.821-.064-1.234.448-1.566 1.1-.87 1.7-1.751 3.4-2.836 5.5m-26.53-1.95c8.219 4.795 8.888 5.012 11.621 3.9-3.441.692-6.008-1.043-8.041-3.553-1.177-1.453-2.125-1.317-3.58-.349m-10.95 43.246c.382-4.025-2.654-7.876.633-11.568-1.211.952-2.736 1.828-2.65 3.448a22.574 22.574 0 002.017 8.12M350 450.1c-.583-.022-.739.508-.994.857-.312.429-.045.768.344.989 1.235.7 2.468 1.415 3.723 2.082.479.255.969.293.882-.509-.057-.528-3.38-3.373-3.955-3.419m15.941-2.663c-.4-.647 1.2-1.906-.4-2.431-2.454-.807-4.966-1.443-7.467-2.1-.505-.133-1.274-.183-1.332.529-.063.8.721.939 1.327.874 1.927-.206 3.767.474 5.643.506 2.1.036 2.493 1.087 2.226 2.622M315.4 427.388a23.656 23.656 0 01-6.347-3.161c-.992-.711-1.033-.654-1.968.418a18.756 18.756 0 008.314 2.743m53.077-7.9a35.556 35.556 0 007.743-4.173c-4.074-.639-5.2 3.012-7.743 4.173m-15.354 26.955l5.01 2.9c-.456-.918-2.429-.8-1.721-2.307.508-1.076 1.46.176 2.294.268-3.947-2.63-3.947-2.63-5.584-.864m-36.073 8.895c2.075-.845 3.577-2.572 5.458-3.747a.757.757 0 00.2-1.221c-.508-.647-.79.021-1.143.238-1.894 1.165-2.944 3.17-4.518 4.731m33.043 2.9c-.508-1.5-.8-2.532-1.217-3.519-.219-.521.027-1.454-.757-1.5-.8-.044-.8.966-1.236 1.45-.4.453-.132.849.3 1.187.85.664 1.673 1.363 2.911 2.379m40.986-38.4l-6.93 3.846a15 15 0 006.93-3.846m-24.034 14.923a17.79 17.79 0 00-2.767 6.855c.836-2.611 2.629-4.4 2.767-6.855m-46.854 8.988a15.29 15.29 0 00-2.451.024c-.8.155-1.082.981-1.512 1.557-.349.466.3.426.515.587.816.616 1.187-.251 1.682-.572a17.287 17.287 0 001.767-1.6m40.219 2.2c.93.536 1.856 1.077 2.79 1.605.409.23.839.574 1.307.177a.821.821 0 00.129-.953 1.011 1.011 0 00-1.13-.67 9.71 9.71 0 01-3.1-.159m-7.484-13.863c1.229-2.447.7-4.788 1.617-6.807-.6 2.089-2.019 4-1.617 6.807m-43.23 4.367l-.4-.082-1.975 7.405.251.071zm31.257 26.83c1.023-1.774.68-3.141-.583-4.6.14 1.618-.367 3.072.583 4.6m2.823-18.037c-.644-.844-1.358-2.074-2.386-1.421-1.178.748.518 1.148.742 1.789.276.79.966-.643 1.644-.368m-7.487 17.956a18.4 18.4 0 011.283-3.861c.179-.319.537-.819 0-1.016-.618-.224-.772.37-.847.844a13.949 13.949 0 00-.433 4.034m17.636-46.581c.976-.83 2.173-1.471 2.7-3.067-1.809.493-2 2-2.7 3.067m-38.2 23.84l.089.019q.875-3.861 1.753-7.72l-.229-.051-1.613 7.752m-4.367 18.151a19.976 19.976 0 002.814 6.715 33.083 33.083 0 01-2.814-6.715m56.688-19.595c-1.388 1.2-1.48 2.156-.366 3.426.585-1.1.275-2.1.366-3.426m-20.923-14.884c-.2.71-.4 1.42-.606 2.128a2.443 2.443 0 00-.041 2.292c.374-1.62 1.056-2.936.647-4.42m13.3.94q-.7 2.166-1.392 4.333c.563-1.421 1.919-2.526 1.392-4.333m-14.847 34.766c-.1-.427-.142-.555-.158-.686a4.687 4.687 0 00-.81-2.387c-.045-.057-.6.112-.656.267-.358 1.044.793 1.408 1.063 2.189.058.17.257.291.562.616m-40.067-6.9a5.262 5.262 0 001.438 3.369c-.908-.88.469-2.532-1.438-3.369m11.152 7.66c-.733.487-.685 1.557-1.648 1.827-.49-.335.173-1.053-.4-1.376-.567.968-.116 1.675.512 2.462.529-1 1.017-1.928 1.537-2.913m27.14.657c.288-1.475-.932-2.186-1.835-3.1l1.835 3.1m-33.019 2.914a13.744 13.744 0 003.154 3.905c-1.072-1.145-1.481-2.825-3.154-3.905m46.836-24.362l.649-4.175a6.125 6.125 0 00-.649 4.175m5.972 12.563a4.218 4.218 0 00-2.848-2.125 3.66 3.66 0 002.848 2.125m-18.255-2.842a3.335 3.335 0 00.261-2.767 2.221 2.221 0 00-.261 2.767m.389 12.682c.478 1.656.442 2.9 1.741 3.964-.5-1.384-.59-2.576-1.741-3.964m15.74-3.889c-.837-1.431-1.929-1.559-3.147-2.275a6.134 6.134 0 003.147 2.275m.46-27.724c.988-.762 1.717-1.218 2.116-2.3-1.3.288-1.766.975-2.116 2.3m-35.037-12.759c-.113-.8.017-1.731-.967-2.041-.087-.028-.323.105-.326.169-.03.915.817 1.266 1.292 1.873" class="cls-2" transform="translate(576 4836)"/><path id="Path_232" d="M413 485.031c4.84 2.828 10.015 4.54 14.571 7.405l-.313.628c-4.226-1.668-8.44-3.368-12.681-5-3.9-1.5-7.884-2.29-12.051-1.207-.478.124-1.156.6-1.366-.226-.2-.8.6-1.055 1.148-1.169a27.418 27.418 0 017.779-.129c1.068.084 1.627.243 2.153-1.02.568-1.363 2.241-.472 3.339-1.045-2.2.162-4.434-.828-6.6.5-.519.318-1.481.483-1.743-.4-.314-1.054.689-1.264 1.375-1.371a34.491 34.491 0 0112.757.228c-.294-.316-.523-.558-.747-.8-.332-.364-.709-.76-.2-1.22.432-.393.753.046 1.035.3a19.85 19.85 0 007.518 4.068 8.521 8.521 0 014.107 2.635 2.431 2.431 0 01.748 1.839c-.051.523-.213.965-.829.97-.668 0-.466-.478-.461-.872a1.938 1.938 0 00-1.258-1.751c-4.212-1.962-8.466-3.828-13.472-4.294 3.3 2.681 7.332 3.842 10.089 6.831-3.6-.865-6.66-2.757-9.669-4.707a4.721 4.721 0 00-5.225-.191" class="cls-2" transform="translate(550.549 4819.65)"/><path id="Path_233" d="M449 479.592c-1.123-.768-2.145-1.557-3.249-2.208-4.118-2.429-8.619-1.706-13.046-1.481-.693.035-1.687.646-1.881-.307s.885-1 1.635-1.058c2.648-.205 5.293-.871 7.977-.034a8.723 8.723 0 00-3.362-1.632c-.411-.146-.849-.284-.748-.792.106-.529.63-.4 1.014-.426a1.332 1.332 0 01.612.037c3.951 1.739 7.91 3.473 10.935 6.714a.9.9 0 01.114 1.186" class="cls-2" transform="translate(544.858 4821.263)"/><path id="Path_234" d="M449.739 466.824c3.2 1.381 6.7 1.856 9.88 3.306a8.513 8.513 0 013.823 2.847c-2.607-.9-4.708-1.674-6.844-2.344-3.261-1.024-6.543-1.978-9.82-2.951-.741-.221-1.988-.23-1.687-1.224.251-.826 1.4-.377 2.174-.166l2.475.532" class="cls-2" transform="translate(542.125 4822.349)"/><path id="Path_235" d="M396.355 491.124c5.719-.7 10.653 1.664 15.556 4.152-5.26-1.052-10.138-3.59-15.556-4.152" class="cls-2" transform="translate(551.465 4817.549)"/><path id="Path_236" d="M386.493 500.2c-.435-.528-.39-1.075-.019-2.124 2.4 4.9 7 6.08 11.145 7.99-4.136.3-7.292-1.793-10.328-4.182l-.8-1.683" class="cls-2" transform="translate(553.417 4816.191)"/><path id="Path_237" d="M385.977 499.7l.8 1.683 2.8 3.65c-.719.487-1.087.061-1.4-.242-2.244-2.205-4.362-4.5-4.644-7.858-.048-.558-.193-1.438.647-1.472.778-.032.523.807.538 1.276.041 1.165.831 1.981 1.262 2.961" class="cls-2" transform="translate(553.933 4816.693)"/><path id="Path_238" d="M396.587 502.929a19.158 19.158 0 01-8.963-4.959c-.3-.276-.578-.685-.213-1.069a.966.966 0 011.324-.114c2.3 2.471 5.41 3.848 7.852 6.142" class="cls-2" transform="translate(553.215 4816.479)"/><path id="Path_239" d="M402.074 497.889a14.449 14.449 0 01-4.226-1.836c-1.443-.748-2.77-1.721-4.443-1.956-.462-.065-1.02-.242-.942-.846.082-.627.668-.573 1.14-.555 1.69.065 7.13 3.283 8.47 5.193" class="cls-2" transform="translate(552.213 4817.226)"/><path id="Path_240" d="M333.522 501.494c-2.808 3.51-3.246 7.592-3.992 12.008-1.525-4.438.727-11.227 3.992-12.008" class="cls-2" transform="translate(564.378 4815.536)"/><path id="Path_241" d="M346.27 503.672c-1.185 3.156-1.889 6.579-5.072 8.46 2.124-2.58 2.2-6.373 5.072-8.46" class="cls-2" transform="translate(562.046 4815.118)"/><path id="Path_242" d="M297.934 506.668c1.829-3.756 6.083-5.417 8.613-3.215-3.5-.411-5.7 1.7-8.613 3.215" class="cls-2" transform="translate(570.346 4815.35)"/><path id="Path_243" d="M364.688 499.829c-1.313 2.771-1.226 5.985-2.755 8.688.068-3.165-.154-6.42 2.755-8.688" class="cls-2" transform="translate(558.069 4815.855)"/><path id="Path_244" d="M384.179 505.918c-3.09-1.178-6.108-5.239-5.775-7.864 2 2.788 3.717 5.451 5.775 7.864" class="cls-2" transform="translate(554.914 4816.196)"/><path id="Path_245" d="M351.852 510.49a14.765 14.765 0 013.1-8.6c-.857 2.929-1.22 6.028-3.1 8.6" class="cls-2" transform="translate(560.002 4815.461)"/><path id="Path_246" d="M459.185 476.488a40.985 40.985 0 01-8.706-3.98c-.329-.2-.641-.572-.369-1.027.181-.3.5-.175.731-.055q3.985 2.1 7.949 4.239c.127.069.158.314.4.823" class="cls-2" transform="translate(541.173 4821.329)"/><path id="Path_247" d="M329.155 503.209c-2.972 1.447-3.236 4.51-4.827 6.923-.735-3.419 1.938-7.411 4.827-6.923" class="cls-2" transform="translate(565.306 4815.214)"/><path id="Path_248" d="M450.213 466.644l-2.475-.532c-.577-.933.076-1.2.731-1.013 2.389.692 4.892 1.063 7.084 2.424a10.011 10.011 0 01-5.341-.879" class="cls-2" transform="translate(541.651 4822.528)"/><path id="Path_249" d="M340.214 504.191l-5.366 6.427c.487-3.392 3.11-6.468 5.366-6.427" class="cls-2" transform="translate(563.264 4815.019)"/><path id="Path_250" d="M436.743 478.919c-2.273.241-4.545.487-6.819.72-.358.036-.739-.039-.7-.493a.927.927 0 011.009-.814 39.478 39.478 0 016.477.08l.036.507" class="cls-2" transform="translate(545.161 4819.997)"/><path id="Path_251" d="M313.618 506.953a8.145 8.145 0 014-4.545.738.738 0 01.937.127c.288.321.143.622-.162.851q-2.383 1.788-4.771 3.567" class="cls-2" transform="translate(567.337 4815.382)"/><path id="Path_252" d="M371.539 507.1c-2.509-.956-2.892-2.795-.926-5.53.012 2.177-.307 4.024.926 5.53" class="cls-2" transform="translate(556.643 4815.521)"/><path id="Path_253" d="M450.486 469.8c-1.6.757-2.758.161-3.929-.043-.361-.062-.656-.252-.581-.672s.449-.459.784-.461a7.716 7.716 0 013.726 1.177" class="cls-2" transform="translate(541.949 4821.841)"/><path id="Path_254" d="M406.853 445.477c-.729.807-1.837.314-1.86 1.325-.019.87.743 1.245 1.326 1.708.715.566 1.878.377 2.389 1.379-3.02.173-4.388-.68-4.824-3.359-.182-1.122-.912-1.047-1.548-1.249-2.278-.724-4.58-1.373-6.861-2.088-.613-.192-1.6-.333-1.281-1.219.238-.669 1.033-.31 1.633-.11 3.616 1.2 7.24 2.377 11.026 3.613" class="cls-2" transform="translate(551.892 4827.028)"/><path id="Path_255" d="M421.8 450.119c-2.138-.783-4.278-1.561-6.414-2.353-.533-.2-1.052-.46-.715-1.173a.687.687 0 011.042-.293c1.708 1.443 4.006 1.638 5.819 2.831a3.056 3.056 0 01.52.573l-.252.414" class="cls-2" transform="translate(547.973 4826.15)"/><path id="Path_256" d="M423.9 452.9c-1.937.413-3.624-.34-5.337-.935-.339-.118-.628-.34-.444-.755a.508.508 0 01.693-.236c1.711.6 3.552.835 5.088 1.926" class="cls-2" transform="translate(547.302 4825.236)"/></g></g></svg>