<svg xmlns="http://www.w3.org/2000/svg" width="219" height="219"><defs><style>.cls-2{fill:#050a23}</style></defs><g id="Group_581" transform="translate(-1065 -4524)"><g id="Ellipse_49" fill="none" stroke="#050a23" stroke-width="1.5" transform="translate(1065 4524)"><circle cx="109.5" cy="109.5" r="109.5" stroke="none"/><circle cx="109.5" cy="109.5" r="108.75"/></g><g id="Group_578" transform="translate(549 -607)"><path id="Path_257" d="M87.133 403.024c.017-4.271 1.008-8.247 1.587-12.278q.961-6.7 1.685-13.426a60.388 60.388 0 00-.233-10.306 35.354 35.354 0 01.546-7.1c.787-5.472 1.49-10.97 2.611-16.377 1.555-7.51 2.625-15.11 4.329-22.59.053-.236.045-.487.353-.651.935.678.589 1.718.462 2.514-1.133 7.04-2.049 14.113-3.277 21.14-.926 5.3-1.507 10.659-2.256 15.99-1.125 8-1.265 16.061-1.514 24.121a119.926 119.926 0 01-1.782 13.993c-.545 3.639-1.016 7.316-1.246 10.978-.173 2.764.543 5.583.867 8.377.409 3.516.944 7.008 1.138 10.56.22 3.993.282 7.983.135 11.961a67.6 67.6 0 01-.457 8.576 3.394 3.394 0 00.619 2.617 37.226 37.226 0 015.317 10.812c.135.453.248.913.375 1.384-.694.208-.643-.517-1.093-.711.1 1.321.231 2.562.269 3.807a29.1 29.1 0 01-2.659 12.137 58.143 58.143 0 00-3.168 11.648c-.251 1.335-.546 2.66-.844 3.986-.123.549-.369 1.1-1.061.93-.675-.164-.647-.73-.535-1.3.763-3.859 1.737-7.656 2.876-11.429 1.43-4.734 3.213-9.417 3.849-14.327.544-4.2.16-8.311-2.485-12.081a226.861 226.861 0 01-12.989-21.586 13.018 13.018 0 00-3.135-4.147 12.081 12.081 0 01-2.752-3.911c-.823-1.525-1.635-3.056-2.471-4.574a9.279 9.279 0 01-1.073-3.45c-.53-5.084-2.991-9.2-6.317-12.826a106.876 106.876 0 00-9.425-8.932 11.784 11.784 0 00-4.1-2.166 54.949 54.949 0 01-8.113-3.589c-5.94-3.061-12.062-3.962-18.292-.776a5.1 5.1 0 00-2.8 3.2c-1.369 4.878-2.567 9.764-2.286 14.906A38.831 38.831 0 0023.9 427.9a62.563 62.563 0 007.138 8.455c2.1 2.216 3.707 4.973 6.308 6.638 4.039 2.586 6.559 6.559 9.682 9.985 1.879 2.06 4.222 3.582 6.313 5.394 2.715 2.355 5.758 4.485 7.921 7.283 2.134 2.759 4.776 4.93 7.05 7.491.663.746 1.736 1.093 1.731 2.377 0 .807-.711 1.2-.811 1.976a85.644 85.644 0 01-1.174 6.884 65.586 65.586 0 00-1.147 8.8c-.073.954.041 2.592-1.057 2.521-.936-.061-.479-1.593-.366-2.524.673-5.581.838-11.231 2.274-16.707a1.408 1.408 0 00-.373-1.34c-.935-1.116-1.813-2.289-2.826-3.331a45.272 45.272 0 01-4.366-5.08 17.174 17.174 0 00-2.676-2.418c-.522 1.437-.048 2.665.167 3.847a32.3 32.3 0 01.036 11.017 26.257 26.257 0 00-.12 4.225c.012 4.327-.139 8.659.269 12.98a2.671 2.671 0 01-.218 1.706 8.217 8.217 0 01-1.1-3.53 48.708 48.708 0 01-.224-10.028 75.989 75.989 0 00-.015-12.937 46.432 46.432 0 01-.14-6.71 2.969 2.969 0 00-1.2-2.64c-3.345-2.65-6.545-5.476-9.98-8.027-2.345-1.742-4.086-4.164-6.028-6.338-2.817-3.154-6-5.964-8.568-9.354-3.018-3.99-6.588-7.531-9.5-11.611-2.468-3.453-3.423-7.491-4.434-11.486a34.316 34.316 0 01-.118-16.314 2.279 2.279 0 00-.244-1.958c-2.773-3.9-4.526-8.372-6.934-12.484-2.455-4.19-4.731-8.488-6.982-12.793-1.23-2.351-2.478-4.712-1.925-7.6a9.656 9.656 0 00-.155-3.766 4.413 4.413 0 01.76-3.6A6.223 6.223 0 001.3 356c1.479-2.953 1.687-6.222 2.2-9.389.951-5.844 1.971-11.672 3.115-17.481.374-1.9.5-3.846.718-5.773a3.379 3.379 0 01.574-1.642c.859.748.57 1.666.515 2.5-.554 8.39-2.35 16.609-3.52 24.915-.73 5.18-1.9 10.3-2.982 15.428a5.032 5.032 0 00.586 3.633c2.709 4.943 5.471 9.856 8.163 14.808 1.742 3.2 3.392 6.454 5.093 9.678.4.766.848 1.513 1.266 2.256.525-.132.485-.513.559-.828a32.5 32.5 0 013.568-8.424c.762-1.356 1.346-2.817 2.173-4.129a3.577 3.577 0 00.013-3.842 122.023 122.023 0 01-5.526-13.477c-.611-1.7-.221-3.461.04-5.19.852-5.657 1.458-11.345 2.6-16.967 1.336-6.557 2.79-13.088 4.16-19.637a.886.886 0 01.061-.284c.215-.341.053-1.072.616-1 .707.092.4.772.343 1.2-.483 3.363-1.207 6.676-1.939 9.994-.9 4.069-1.125 8.266-2.115 12.325-1.269 5.208-1.423 10.572-2.276 15.838a10.225 10.225 0 001.09 5.635c1.576 3.794 3.032 7.638 4.912 11.458 2.42-4.864 4.855-9.47 5.182-14.947.28-4.677.315-9.345.162-14a106.291 106.291 0 00-1.49-12.126c-.328-2.2-.529-4.425-.784-6.638-.028-.242.061-.567-.066-.716-1.67-1.969-.156-4.328-.8-6.42a2.225 2.225 0 01.048-1.014c.068-.353.276-.65.695-.583.388.061.344.418.361.694a19.114 19.114 0 00.28 3.627c.171.666.4.762 1 .526a18.875 18.875 0 008.609-6.491c.512-.7.953-1.442 2.02-1.569a5.535 5.535 0 01-1.832 3.884 19.9 19.9 0 01-8.207 5.546c-.762.272-1.126.594-.989 1.457.252 1.579.4 3.174.626 4.759.145 1.039.812.543 1.318.394 2.7-.793 5.379-1.682 8.1-2.384 3.254-.839 6.63-.846 9.952-1.221 4.89-.553 9.659.431 14.43 1.207a95.967 95.967 0 0017.723 1.138 14.412 14.412 0 012.479.077c2.02.3 2 .333 2.535-1.689.777-2.926.5-5.885.29-8.838a6.62 6.62 0 01.023-2.172c.08-.3.163-.733.6-.7.492.038.371.487.4.8a42.5 42.5 0 01-1.015 15.743c-.89 3.231-1.967 6.4-2.839 9.633-2.008 7.445-3.538 14.968-2.209 22.713.549 3.2 1.335 6.362 1.751 9.59a28.128 28.128 0 01.253 5.636 24.837 24.837 0 00.817 7.358c.914 3.965.809 8.116 2.382 12.163m-35.788-71.463c-1.827 0-3.436-.08-5.035.015-4.315.257-8.313 1.837-12.378 3.112-3.3 1.035-3.288 1.061-2.94 4.465.029.289.032.584.075.872 1.089 7.163 1.88 14.355 1.048 21.594-.208 1.817.459 3.642-.354 5.445-.957 2.119-1.674 4.346-2.577 6.492a1.4 1.4 0 00.52 1.931c1.641 1.415 3.7 1.978 5.551 2.931a49.613 49.613 0 007.868 3.038c7.663 2.417 15.607 2.932 23.569 3.23 5.86.218 10.413-2.584 14.535-6.364a2.039 2.039 0 00.647-1.976 40.044 40.044 0 00-.762-4.44c-1.514-5.419-.644-10.913-.635-16.38a3.664 3.664 0 01.171-.706 137.615 137.615 0 014.6-17.44c.8-2.258.4-2.671-2.08-2.69-.341 0-.682-.01-1.022 0A98.974 98.974 0 0161.7 333.03c-3.509-.621-6.884-2.311-10.376-1.451m30.726 48.046c-.364.338-.6.574-.852.79-3.741 3.18-7.824 5.534-12.914 5.751a90.91 90.91 0 01-14.4-.718 61.74 61.74 0 01-24.946-8.264c-.827-.5-1.187-.237-1.536.542a151.487 151.487 0 01-2.432 5.138c-.831 1.679-1.711 3.333-2.652 5.159.477-.2.789-.309 1.085-.455a15.185 15.185 0 017.256-1.668 28.56 28.56 0 019.276 2.345c3.689 1.489 7.164 3.478 11 4.624a12.738 12.738 0 014.76 3.007c1.954 1.75 3.813 3.6 5.75 5.359 3.986 3.626 7.282 7.666 8.668 13.013a29.033 29.033 0 001.041 2.776c.906-2.318.957-4.56 1.363-6.727 1.165-6.235 2.775-12.28 6.332-17.695 2.512-3.822 4.252-7.97 3.2-12.98M88.309 447c1.38-5.1-.8-33.493-3.516-46.7-.222.508.512 1.052-.147 1.787-1.462-4.023-1.882-8.118-2.384-12.362a23.689 23.689 0 01-1.431 2.947c-4.416 6.536-6.126 13.953-7.219 21.6-.3 2.119-.035 4.417-1.637 6.219-.284.319-.123.747.087 1.1.953 1.578 1.818 3.2 2.887 4.717a97.159 97.159 0 015.977 8.959c2.206 3.994 4.747 7.78 7.382 11.742" class="cls-2" transform="translate(576 4836)"/><path id="Path_258" d="M67.083 334.488a3.191 3.191 0 01-2.092 1.57 37.148 37.148 0 00-5.665 2.244c-.388.213-.848.455-1.151-.05-.347-.577.138-.962.549-1.151a33.726 33.726 0 018.359-2.613" class="cls-2" transform="translate(551.225 4828.936)"/><path id="Path_259" d="M59.884 334.187l1.8-.276a3.233 3.233 0 01-2.219 1.846c-1.016.224-.663-1.026-1.113-1.52-.385-.422.318-.85.854-1.019.36-.113.794-.423 1.07-.09.322.39-.353.594-.393 1.059" class="cls-2" transform="translate(551.145 4829.58)"/><path id="Path_260" d="M120.438 405.1a10.654 10.654 0 00.4 4.558c.634 2.211-.114 4.348-.015 6.513.053 1.161.208 2.318.263 3.479.018.39.187 1.042-.4 1.073s-.667-.6-.714-1.078c-.127-1.3-.115-2.62-.159-3.921-.079-2.28-1.52-4.317-1.022-6.669.274-1.294.222-2.7 1.645-3.955" class="cls-2" transform="translate(525.35 4798.803)"/><path id="Path_261" d="M120.494 388.779c-.624-6.6 1.439-12.944 1.571-19.447.983 1.156.677 2.541.534 3.79-.551 4.807-1.472 9.574-1.37 14.444.01.448.111 1.015-.735 1.213" class="cls-2" transform="translate(524.63 4814.066)"/><path id="Path_262" d="M54.426 432.976a19.085 19.085 0 016.6 2.1c.322.188.793.411.667.841-.157.53-.724.266-.994.163a29.838 29.838 0 00-6.99-1.854c-.4-.049-.663-.261-.5-.682.209-.557.727-.561 1.221-.564" class="cls-2" transform="translate(553.315 4786.906)"/><path id="Path_263" d="M137.856 437.77a14.83 14.83 0 011.114-4c.148-.314.369-.637.762-.51.448.144.3.528.2.85a6.82 6.82 0 01-2.079 3.662" class="cls-2" transform="translate(517.17 4786.798)"/><path id="Path_264" d="M60.785 432.427c-1.1.457-1.9-.248-2.761-.552a.479.479 0 01-.2-.631.442.442 0 01.587-.277c.885.283 1.906.363 2.378 1.459" class="cls-2" transform="translate(551.342 4787.775)"/><path id="Path_265" d="M61.613 430.1a4.465 4.465 0 01-2.217-.851c-.224-.181-.5-.373-.3-.707a.513.513 0 01.644-.194c.762.335 1.574.639 1.871 1.752" class="cls-2" transform="translate(550.809 4788.897)"/></g></g></svg>