<svg xmlns="http://www.w3.org/2000/svg" width="219" height="219"><defs><style>.cls-2{fill:#fff}</style></defs><g id="Group_580" transform="translate(-639 -4528)"><g id="Ellipse_49" fill="none" stroke="#f9f9f9" stroke-width="1.5" transform="translate(639 4528)"><circle cx="109.5" cy="109.5" r="109.5" stroke="none"/><circle cx="109.5" cy="109.5" r="108.75"/></g><g id="Group_576" transform="rotate(11 2308.23 3907.234)"><path id="Path_266" d="M300.827 110.8c-.238 2.274-1.618 2.49-3.255 2.1-1.74-.416-3.815-.546-3.426-3.262.185-1.286-.486-1.789-1.721-2.144-3.724-1.073-4.906-4.435-2.346-7.261 2.345-2.59 2.792-5.88 4.1-8.849a124.7 124.7 0 016.215-11.689 3.687 3.687 0 014.4-1.951 4.974 4.974 0 006.023-5.145 20.765 20.765 0 00-1.176-6.16c-1.406-3.963-.7-8.022 0-12.052.889-5.159 4.047-9.373 5.742-14.285-4.613 2.121-6.85 6.139-8.48 11.175-1.645-7.014 7.748-17.674 12.865-20.837-2.629-1.51-3.09-3.282-1.78-6.211 1.993-4.453 5.785-7.341 9.092-10.664 5.459-5.485 12.571-7.736 19.608-10.152 2.255-.774 4.524-1.52 6.739-2.4 5.119-2.034 9.964-.781 14.321 1.8a116.956 116.956 0 0120.381 15.2 53.322 53.322 0 0116.97 33.89 102.913 102.913 0 01-2.316 34.894 693.177 693.177 0 01-2.567 10.628 2.9 2.9 0 00.447 2.957c2.718 2.889 2.574 6.49 1.547 9.726-3.434 10.82-6.959 21.6-12.128 31.807A117.676 117.676 0 01369.917 171a34.9 34.9 0 01-13.663 9.217c-.877.3-1.894.8-2.379-.307-.528-1.2.614-1.464 1.457-1.828 7.874-3.4 13.768-9.1 19.122-15.687a125.68 125.68 0 0014.123-22.586c4.953-9.7 7.759-20.135 11.058-30.4.929-2.889.471-5.212-2.177-7.933-3.518-3.615-7.6-4.953-11.955-6.369-1.607-.522-2.6-.045-3.465 1.421-1.894 3.2-4.169 6.177-5.916 9.444-6.506 12.169-15.491 22.449-24.74 32.489a54 54 0 01-14.2 11.135c-7.062 3.764-14.594 5.738-22.716 4.345-3.985-.684-5.779-2.628-5.894-6.675-.06-2.108-.055-4.22-.008-6.329a4.233 4.233 0 00-2.443-4.074c-3.306-1.846-3.983-4.194-2.008-7.476 1.149-1.907 1.188-3.426-.813-4.622-3.636-2.173-3.781-5.351-2.75-8.953.449-1.567 1.193-3.136.282-5.012m71.691-3.857a8.507 8.507 0 01-3.167-4.6c-1.709-4.57-1.121-9.187.233-13.643 1.26-4.143 1.961-8.165.41-12.337a1.481 1.481 0 01.1-1.591c1.257-1.551.227-2.36-1.106-2.61-5.567-1.044-8.472-4.856-10.364-9.731-.5-1.3-1.447-2.693.033-4.065.17-.158-.034-.795-.157-1.179-1.009-3.156-3.4-5.2-5.956-7.558 2.046 5.368.874 11.08 4.066 16.09a5.569 5.569 0 01-3.791-4.545c-.811-3.474-.56-7.137-1.961-10.505-.924-2.226-2.245-3.719-3.971-4.259 2.486 4.022 6.241 16.009 5.818 18.751a8.136 8.136 0 01-1.982-3.455c-1.858-4.824-2.378-10.144-5.4-14.538a1.149 1.149 0 01.192-1.7c2.192-1.077.377-1.694-.268-2.235-3.455-2.894-7.592-4.71-11.578-7.276.942 4.617.387 9.046.589 13.45a7.017 7.017 0 002.587 5.574 3.554 3.554 0 00-.473-2.131c-1.207-2.835-.881-5.787-.751-8.726.022-.483-.02-1.084.651-1.129.761-.05.884.541.9 1.144a9.625 9.625 0 010 1.265 17.828 17.828 0 003.223 11.741c1.489 2.287 3.114 4.537 6.141 5.049.373.063 1.028.1 1.022.88a5.722 5.722 0 01-4.989-.833 14.572 14.572 0 01-4.029-4.54c-.4-.689-.787-1.406-1.624-1.527-2.629-.379-3.536-2.239-4.016-4.5-.722-3.412-.025-6.883-.4-10.292-.245-2.234.622-5.091-2.559-6.19a.781.781 0 01-.229-.719c.646-1.155-.339-1.494-.979-1.859a23.013 23.013 0 00-5.471-2.137c-1.122-.3-1.614.175-2.12 1.122-2.917 5.453-5.138 11.216-7.622 16.861-2.37 5.392-3.28 11.146-1.282 16.612a14.588 14.588 0 01-1.078 13.221c-.243.423-1.395.955-.306 1.414.958.406 2.05 2.161 3.066.718 1.313-1.862 3.924-2.6 4.342-5.2.068-.425.768-1.3 1.032-.348.419 1.5.809 1.2 1.764.516a2.78 2.78 0 012.45-.062c2.007.621 4.018 1.229 6.018 1.872 1.619.52 3.2 1.16 4.108 2.715.429.738.612 1.47 1.642 1.808a2.564 2.564 0 011.409 1.9c.036.94-1.169.382-1.7.708-2.441 1.494-5.755.644-7.876 2.966-.184.2-.681.31-.654 0 .167-1.9-1.342-.185-1.68-.724-.236-.768.494-.985.589-1.58-.728 1.743-2.656.58-3.68 1.618-.071.072-.522-.091-.52-.106.317-2.29-1.314-.746-1.734-.7-1.708.182-3.2-1.407-4.924-.086-.031-1.249 1.1-1.03 1.191-1.736a5.369 5.369 0 00-4.512 4.877 9.217 9.217 0 01-.528 1.6c-.943 2.831-.942 2.831 1.83 3.824 2.6.932 2.707 1.15 1.838 3.839-.151.468-.3.937-.459 1.4-.844 2.442-1.33 2.583-3.3.967-2.072-1.7-2.072-1.7-2.931.748-.926 2.63-1.794 3.019-4.161 1.58a34.377 34.377 0 00-6.476-3c-3.261-1.151-3.22-1.13-5.268 1.772-1.057 1.5-.531 2.544.807 3.295a7.612 7.612 0 002.423.623 17 17 0 016.536 2.149 4.544 4.544 0 012.321 4.568c-.15 2.071-1.164 3.891-1.521 5.9-.214 1.2-.468 2.413.7 3.282a47.07 47.07 0 0012.371 6.961c.745.263 1.573.467 1.473 1.478a1.432 1.432 0 01-1.69 1.244c-2.14-.164-4.42-.08-5.923-2.078-.487-.648-.9-1.352-1.344-2.031l-.593.569a8.6 8.6 0 01-1.255 3.315c-1.366 2.726-1.188 3.3 1.611 4.421a5.67 5.67 0 013.772 5.524c.079 2.177.079 4.362.007 6.539a3.206 3.206 0 002.944 3.668c7.744 1.443 14.959-.494 21.776-3.868 5.443-2.695 9.93-6.838 14.212-11.1 7.44-7.4 13.154-16.226 19.693-24.371a10.272 10.272 0 002.374-4.815c1.966-1.213 2.587-3.395 3.672-5.221.693-1.168 1.666-2.188 1.753-3.732.229-4.116-1.455-7.7-2.892-11.9a52.96 52.96 0 01-2.457 8.474c-1.309 3.6-1.1 3.553-.821 6.518.193 2.006.541 3.968.833 5.949m7.79-12.14c.9-1.87 2.1-3.08 4-2.677 4.18.886 8.4 1.76 11.921 4.413 1.061.8 1.439.439 1.7-.6.121-.476.208-.959.334-1.433 3.867-14.483 5.768-29.106 3.567-44.1a50.844 50.844 0 00-15.543-30.264 123.592 123.592 0 00-18.6-14.4c-4.267-2.753-8.839-4.389-14.138-2.206a57.526 57.526 0 01-8.711 3.053c-9.338 2.177-16.293 7.905-22.511 14.76a11.561 11.561 0 00-2.71 4.472c-.3 1.036-.751 1.982 1.38 2.257a24.143 24.143 0 0111.334 4.151 29.848 29.848 0 004.236 2.743c9.341 4.628 16.759 11.651 23.963 18.97 3.681 3.741 6.314 8.237 9.115 12.582a49.947 49.947 0 016.595 14.935c1.1 4.392 2.632 8.678 4.069 13.331M304.171 80.57c-1.129-.058-1.644.1-1.988.632a50.063 50.063 0 00-3.534 6.211c-.491 1.056.3 1.2.931 1.445 2.477.977 4.982 1.885 7.432 2.923.982.415 1.2.161 1.318-.791a28.106 28.106 0 01.862-4.95c.22-.711 1.55-1.981-.526-2.269.323-1.471-.346-1.086-1.138-.64s-.923-.16-1.114-.737a2.589 2.589 0 00-2.244-1.824m27.56 1.915c-1.646-2.285-3.324-3.956-6.174-3.985a21.165 21.165 0 00-7.682.833c4.454 1.692 8.7 4.238 13.856 3.152m-25.4 16.322a1.085 1.085 0 00-.69-1.18 65.429 65.429 0 00-9.034-3.28c-.68-.228-1.033.074-1.316.661a1.14 1.14 0 00.166 1.524 4.481 4.481 0 001.425.847 38.83 38.83 0 016.867 3.063c1.6.879 2.559.237 2.582-1.635m62.665-28.369a123.162 123.162 0 00-7.829-11.776c1.533 4.428 1.828 9.658 7.829 11.776m-70.636 20.073c-1.051-.229-1.354.151-1.52.641-.284.837.288 1.081.934 1.312q4.128 1.474 8.24 2.994c.4.148.831.372 1.1-.109a.864.864 0 00-.3-1.282c-2.937-1.272-5.9-2.488-8.449-3.555m73.568-13.847c2.367 6.172-.909 11.823-1.5 17.721 1.072-2.647 1.793-5.4 2.712-8.092 1.192-3.483.323-6.561-1.208-9.629m-61.8 18.771c-.831-.041-1.15.341-1.174 1-.017.467 2.474 2.614 2.911 2.433a1.761 1.761 0 00.925-1.927c-.207-1.629-1.918-.861-2.662-1.506m-12.443 15.59c.878.2 1.539-.155 1.465-1.008-.105-1.223-1.281-1.347-2.2-1.563-.939-.222-1.342.555-1.306 1.241.067 1.217 1.215 1.111 2.039 1.33m19.323-75.746l-3.176 3.313c1.179-1.047 2.5-1.948 3.176-3.313" class="cls-2" transform="translate(576 4836)"/><path id="Path_267" d="M397.058 117.223c4.474.9 8.62 2.363 11.13 6.637a30.777 30.777 0 012.519 5.084c.221.611.689 1.46-.242 1.837-1 .4-1.1-.59-1.333-1.186-1.8-4.621-4.765-7.977-9.672-9.5-2.917-.905-4.557-.631-5.62 2.213-4.058 10.858-11.867 19.3-18.278 28.626-2.4 3.5-5.661 6.408-8.494 9.616-1.579 1.788-3.074 3.648-4.633 5.452-.444.513-1.046 1.334-1.7.743-.634-.569.111-1.252.55-1.759 4.591-5.3 9.608-10.3 13.685-15.973 4.816-6.7 9.842-13.318 13.816-20.591 1.438-2.632 2.239-5.6 3.743-8.227 1-1.743 2.264-3.056 4.533-2.973" class="cls-2" transform="translate(563.628 4815.794)"/><path id="Path_268" d="M322.978 191.136c-1.824.022-3.669.171-5.378-.68-.777-.387-1.654-.886-1.263-1.886.468-1.2 1.394-.468 2.119-.194 3.8 1.434 7.639.641 11.439.125 2.49-.338 4.938-1 7.4-1.561a28.232 28.232 0 009.928-4.892 6.344 6.344 0 01.881-.562c.439-.211.965-.5 1.267.135.269.57.043.9-.536 1.33a37.813 37.813 0 01-15.055 6.7c-3.57.723-7.105 1.672-10.8 1.482" class="cls-2" transform="translate(571.255 4804.76)"/><path id="Path_269" d="M370.877 179.013c-.548.031-.82-.055-.924-.351a1.4 1.4 0 01.439-1.335c1.99-2.518 3.987-5.032 6.042-7.5 1.116-1.339 2.33-2.6 3.535-3.858.424-.442.965-1 1.616-.456.669.563.214 1.21-.219 1.635A131.759 131.759 0 00372 178.14a2.32 2.32 0 01-1.121.872" class="cls-2" transform="translate(562.005 4807.509)"/><path id="Path_270" d="M362.923 188.308a4.474 4.474 0 01-.774 1.013c-2.375 1.865-4.257 4.28-6.768 5.995-.658.449-1.44 1.086-2.046.415-.774-.856.333-1.336.839-1.771 2.39-2.055 4.832-4.051 7.262-6.06.315-.261.636-.6 1.113-.444.3.1.4.361.372.853" class="cls-2" transform="translate(564.907 4803.694)"/><path id="Path_271" d="M417.336 140.582c-.1.735.116 1.383-.487 1.539-.826.214-.824-.628-.987-1.075a59.821 59.821 0 00-4.87-10.664c-.188-.309-.432-.6-.114-.92.387-.391.769-.127 1.124.1a1.044 1.044 0 01.313.278 44.66 44.66 0 015.021 10.739" class="cls-2" transform="translate(554.968 4813.719)"/><path id="Path_272" d="M414.916 145.727c-.086.578.116 1.106-.462 1.224-.4.083-.616-.264-.769-.586q-2.263-4.74-4.508-9.489a.736.736 0 01.168-.958c.449-.315.815-.032 1.049.331a44.309 44.309 0 014.522 9.477" class="cls-2" transform="translate(555.253 4812.595)"/><path id="Path_273" d="M410.765 152.42a52.441 52.441 0 01-3.356-8.722c-.084-.36-.115-.747.247-.915a.892.892 0 01.748.123c1.218.879 2.965 7.4 2.361 9.514" class="cls-2" transform="translate(555.549 4811.395)"/><path id="Path_274" d="M408.374 156.605a16.386 16.386 0 01-2.854-5.942c-.15-.546-.325-1.374.488-1.594.9-.244.89.574 1.075 1.163.417 1.322.881 2.63 1.345 3.937a2.4 2.4 0 01-.055 2.436" class="cls-2" transform="translate(555.887 4810.312)"/><path id="Path_275" d="M398.01 176.454c-1.29-2.005-2.439-3.74-1.846-6.068.147-.579.395-1.149 1.113-.953.779.212.238.819.2 1.223a6.591 6.591 0 00.66 3.247 3.059 3.059 0 01-.125 2.552" class="cls-2" transform="translate(557.506 4806.801)"/><path id="Path_276" d="M404.392 153.868c-.076 2.508 1.257 4.743 1.405 7.3-2.25-1.189-3.108-5.209-1.405-7.3" class="cls-2" transform="translate(556.215 4809.477)"/><path id="Path_277" d="M400.348 171.578a6.154 6.154 0 01-2.476-3.693 1.79 1.79 0 01.761-2.192c.383-.227 1.127-.16.925.2-1.2 2.115.951 3.46 1.036 5.24 0 .113-.124.233-.246.447" class="cls-2" transform="translate(557.201 4807.461)"/><path id="Path_278" d="M402.589 164.667a5.538 5.538 0 01-2.227-4.4c0-.485-.012-1.053.7-1.058.616 0 .572.462.554.892-.063 1.531 1.339 2.751.974 4.569" class="cls-2" transform="translate(556.755 4808.557)"/><path id="Path_279" d="M338.245 85.516c.741 1.294 2.706 2.4 2.061 2.931-1.1.9-1.778-1.27-2.862-1.612-2.232-.706-4-2.745-6.72-2.135a10.776 10.776 0 01-4.376-.33c-1.73-.342-2.923.077-2.625 2.255.075.546.3 1.56-.441 1.609-1.006.066-.784-1-.749-1.625.116-2.1-1.067-3.855-1.471-5.813-.087-.424-.3-.862.14-1.131.5-.307.751.146.97.5a10.533 10.533 0 002.286 2.658c0-1.186-3.482-1.855-.232-3.056-.6-.185-1.2.041-1.63-.391-.261-.258-.492-.584-.268-.914.11-.163.475-.2.729-.213a40.448 40.448 0 0119.325 3.49c2.272 1.013 4.848 1.246 6.984 2.637.758.493 1.763 1.009 1.222 2.1-.5 1.008-1.519.809-2.422.474-3.142-1.16-6.437-1.192-9.92-1.435" class="cls-2" transform="translate(570.446 4822.527)"/><path id="Path_280" d="M397.018 96.189c.012 1.15-.135 1.939-1.118 2.058-1.01.122-1.26-.7-1.488-1.454a183.291 183.291 0 00-7-18.44 88.5 88.5 0 00-5.619-10.318c-2-3.389-3.924-6.8-7.3-9.08a.97.97 0 01-.3-1.473c.614-.7 1.114-.059 1.608.293a28.037 28.037 0 016.562 7.27c6.266 9.013 10.474 18.974 14.128 29.225.257.719.406 1.477.525 1.918" class="cls-2" transform="translate(561.305 4826.146)"/><path id="Path_281" d="M330.723 28.786a1.934 1.934 0 01.583.242c2.038 1.845 4.732 2.066 7.186 2.777 3.52 1.021 6.322 3.246 9.416 5a126.786 126.786 0 0113.417 9.006c.727.545 1.859 1.1 1.227 2.086-.675 1.05-1.747.4-2.562-.193-1.64-1.2-3.264-2.417-4.891-3.633a143.261 143.261 0 00-14.6-9.436c-2.026-1.159-4.477-1.585-6.747-2.3a6.4 6.4 0 01-3.336-2.075c-.41-.535-.627-1.149.311-1.472" class="cls-2" transform="translate(568.873 4831.038)"/><path id="Path_282" d="M414.942 60.245l.424-2.038c-.609.708-1.023 1.553-2.138 1.818a3.627 3.627 0 01.74-2.874c1.33-2.317 2.3-4.789 3.394-7.21.3-.673.559-1.758 1.522-1.292.907.439.55 1.435.174 2.211-.275.565-.642 1.091-.861 1.674-.084.223-.409.552.012.858 1.061.771 1.034.777.443 1.873-.984 1.824-1.836 3.733-3.709 4.98" class="cls-2" transform="translate(554.553 4827.634)"/><path id="Path_283" d="M358.531 10.626c.71.245 1.875-.388 1.942.718.059.974-1.039.888-1.785.989a40.8 40.8 0 00-13.2 4.573 4.9 4.9 0 01-2.537.9c-.351-.022-.716-.044-.849-.452-.14-.428.161-.662.467-.824 5.066-2.691 10.152-5.329 15.96-5.9" class="cls-2" transform="translate(566.803 4834.168)"/><path id="Path_284" d="M399.5 61.54c-.131.49.313 1.366-.631 1.46-.646.065-.873-.6-1.034-1.147-1.173-4.032-2.161-8.131-4.456-11.743a1 1 0 01.223-1.49c.54-.294.9.225 1.219.578 1.512 1.659 4.645 9.91 4.679 12.342" class="cls-2" transform="translate(557.998 4827.634)"/><path id="Path_285" d="M365.329 12.614a1.345 1.345 0 01-.958 1.212q-5.707 2.124-11.435 4.189c-.432.155-1.083.258-1.309-.289-.281-.681.336-1.007.833-1.246a71.175 71.175 0 0111.667-4.118 1.019 1.019 0 011.2.252" class="cls-2" transform="translate(565.167 4833.883)"/><path id="Path_286" d="M406.2 86.938c-.205.672.271 1.595-.65 1.654-.722.046-.9-.772-1.027-1.382-.706-3.349-1.413-6.7-2.061-10.056-.12-.625-.419-1.592.506-1.779s.943.774 1.135 1.432a77.357 77.357 0 012.1 10.131" class="cls-2" transform="translate(556.416 4823.012)"/><path id="Path_287" d="M413.165 74.231c.569-1.159 1.111-2.331 1.71-3.473q2.145-4.092 4.34-8.157c.25-.465.448-1.174 1.167-.955s.576.846.362 1.4a32.464 32.464 0 01-7.08 11.464q-.251-.14-.5-.282" class="cls-2" transform="translate(554.548 4825.381)"/><path id="Path_288" d="M413.648 79.835l6.911-9.846.631.436c-1.321 3.953-3.354 7.422-7.03 9.772l-.511-.362" class="cls-2" transform="translate(554.464 4823.936)"/><path id="Path_289" d="M414.943 67.4a19.794 19.794 0 013.786-8.722.763.763 0 011.088-.319.861.861 0 01.169 1.153c-1.466 2.758-2.616 5.715-5.044 7.887" class="cls-2" transform="translate(554.241 4825.962)"/><path id="Path_290" d="M419.187 108.68c-3.187-.2-5.579-1.2-8.054-1.8-.363-.088-.831-.341-.766-.871.056-.457.412-.9.827-.786 2.639.692 5.436 1.064 7.993 3.459" class="cls-2" transform="translate(555.031 4817.866)"/><path id="Path_291" d="M388.884 39.664c-2.652-.843-3.89-2.6-5.22-4.221a.728.728 0 01.12-.961.6.6 0 01.914.062c1.424 1.448 3.161 2.647 4.186 5.12" class="cls-2" transform="translate(559.656 4830.088)"/><path id="Path_292" d="M417.232 82.194c-.165-1.635 1.285-4.32 2.648-4.855.233-.092.6-.168.761-.05.4.3.251.739.085 1.135a16.359 16.359 0 01-3.494 3.77" class="cls-2" transform="translate(553.849 4822.688)"/><path id="Path_293" d="M367 17.813c-1.116 1.716-2.917 2.3-4.708 2.877a.629.629 0 01-.819-.444c-.118-.43.206-.636.5-.8A15.2 15.2 0 01367 17.813" class="cls-2" transform="translate(563.462 4832.93)"/><path id="Path_294" d="M416.982 87.2a4.282 4.282 0 012.4-4.6c.262-.151.619-.44.909-.027a.783.783 0 01-.072.971c-.972 1.133-1.978 2.236-3.24 3.652" class="cls-2" transform="translate(553.895 4821.802)"/><path id="Path_295" d="M417.709 112.329a7.548 7.548 0 01-3.914-1.049c-.556-.338-.854-.827-.569-1.386.336-.66.824-.18 1.223.038a9.077 9.077 0 013.26 2.4" class="cls-2" transform="translate(554.556 4817.115)"/></g></g></svg>